<svg width="36" height="70" viewBox="0 0 36 70" fill="none" xmlns="http://www.w3.org/2000/svg">
<g clip-path="url(#clip0_751_2)">
<path d="M17.3789 49.3698C19.8089 46.8398 21.0089 44.0398 21.2089 41.4398C19.1689 41.3498 17.3889 40.6198 16.0789 39.2998C15.9389 39.1598 15.9389 38.9298 16.0789 38.7898C16.2189 38.6498 16.4489 38.6498 16.5889 38.7898C18.1689 40.3698 20.5089 41.0198 23.1789 40.5998C25.8889 40.1798 28.5989 38.7298 30.8189 36.5098C35.3689 31.9598 36.3889 25.5698 33.0989 22.2698C31.5189 20.6898 29.1789 20.0398 26.5089 20.4598C23.7989 20.8798 21.0889 22.3298 18.8689 24.5498C18.3089 25.1098 17.7789 25.7198 17.3189 26.3498C17.1989 26.5098 16.9789 26.5398 16.8089 26.4298C16.6489 26.3098 16.6189 26.0898 16.7289 25.9198C17.2189 25.2598 17.7589 24.6298 18.3489 24.0398C19.2589 23.1298 20.2589 22.3398 21.2989 21.6898C21.0789 20.3898 20.5589 19.2298 19.6389 18.3098C18.9889 17.6598 18.2189 17.1598 17.3789 16.8298C22.0789 12.1098 23.0989 5.49978 19.6389 2.03978C16.1789 -1.41022 9.5489 -0.390224 4.8289 4.32978C0.108897 9.04978 -0.911103 15.6798 2.5489 19.1398C3.1989 19.7898 3.9689 20.2898 4.8089 20.6198C0.108897 25.3498 -0.901103 31.9598 2.5489 35.4098C3.1989 36.0598 3.9689 36.5598 4.8089 36.8898C0.108897 41.6098 -0.911103 48.2198 2.5489 51.6798C3.1989 52.3298 3.9689 52.8198 4.8089 53.1698C0.108897 57.8898 -0.901103 64.4998 2.5489 67.9498C6.0089 71.4098 12.6389 70.3798 17.3589 65.6598C22.0789 60.9398 23.0989 54.3098 19.6489 50.8498C18.9989 50.1998 18.2289 49.6998 17.3889 49.3698H17.3789Z" fill="#B9DCB7"/>
</g>
<defs>
<clipPath id="clip0_751_2">
<rect width="34.53" height="70" fill="white" transform="translate(0.5)"/>
</clipPath>
</defs>
</svg>
