<svg width="43" height="70" viewBox="0 0 43 70" fill="none" xmlns="http://www.w3.org/2000/svg">
<g clip-path="url(#clip0_751_5)">
<path d="M40.6812 27.84C40.6412 27.44 39.8812 19.89 38.4812 10.51C38.0512 7.63998 36.8212 5.02998 35.0112 3.14998C33.0212 1.08998 30.4512 -0.0100195 27.5812 -0.0100195C24.5112 -0.0100195 21.7312 1.23998 19.7412 3.23998C19.7112 3.20998 19.6812 3.16998 19.6512 3.13998C17.6612 1.07998 15.0912 -0.0200195 12.2212 -0.0200195C6.20123 -1.95317e-05 1.31123 4.77998 1.31123 10.66C1.31123 14.37 3.26123 17.64 6.21123 19.55C6.47123 20.62 7.23123 24.22 7.11123 29.51C6.95123 36.75 5.27123 43.99 2.11123 51.03C0.651228 54.29 0.171228 57.56 0.721228 60.48C1.23123 63.17 2.57123 65.5 4.61123 67.23C6.79123 69.08 9.49123 70.01 12.2512 70.01C14.7012 70.01 17.1912 69.28 19.4312 67.8C19.6612 67.65 19.8812 67.49 20.1012 67.33C22.2612 69.11 24.9112 70.01 27.6212 70.01C30.0712 70.01 32.5612 69.28 34.8012 67.8C39.1412 64.93 41.5412 59.54 42.1212 51.34C42.6212 44.28 41.7312 35.88 40.6812 27.85V27.84ZM11.7012 68.03C9.55123 67.91 7.49123 67.09 5.88123 65.72C4.19123 64.29 3.07123 62.34 2.65123 60.1C2.17123 57.57 2.60123 54.71 3.90123 51.81C7.16123 44.53 8.90123 37.04 9.07123 29.54C9.16123 25.57 8.77123 22.49 8.44123 20.65C9.62123 21.08 10.9012 21.31 12.2312 21.31C12.7712 21.31 13.2112 20.87 13.2112 20.33C13.2112 19.79 12.7712 19.35 12.2312 19.35C7.29123 19.35 3.28123 15.45 3.28123 10.65C3.28123 5.84998 7.28123 1.95998 12.2212 1.95998C14.5412 1.95998 16.6312 2.83998 18.2412 4.51998C18.3212 4.60998 18.4012 4.68998 18.4812 4.77998C17.3312 6.46998 16.6612 8.48998 16.6612 10.66C16.6612 14.37 18.6112 17.64 21.5612 19.55C21.7212 20.21 22.0712 21.84 22.2912 24.23C21.5212 24.19 20.7412 24.23 19.9712 24.38C17.3612 24.86 15.1112 26.32 13.6212 28.5C12.1312 30.68 11.5912 33.32 12.0912 35.92C12.8912 40.08 16.2012 43.15 20.1512 43.87C19.4312 46.27 18.5312 48.66 17.4712 51.02C16.0112 54.28 15.5312 57.55 16.0812 60.47C16.4712 62.54 17.3612 64.4 18.6712 65.93C18.5612 66.01 18.4512 66.08 18.3412 66.16C16.2912 67.52 13.9912 68.16 11.6912 68.03H11.7012ZM40.1612 51.19C39.6212 58.75 37.5112 63.64 33.7112 66.16C31.6612 67.52 29.3612 68.16 27.0612 68.03C24.9112 67.91 22.8512 67.09 21.2412 65.72C19.5512 64.29 18.4312 62.34 18.0112 60.1C17.5312 57.57 17.9612 54.71 19.2612 51.81C20.4112 49.24 21.3712 46.64 22.1412 44.02C22.6612 44.01 23.1812 43.96 23.7112 43.86C26.9612 43.26 29.6712 41.1 30.9812 38.08C31.1912 37.58 30.9612 37.01 30.4712 36.79C29.9712 36.58 29.4012 36.81 29.1812 37.3C28.1412 39.72 25.9612 41.45 23.3612 41.93C19.0412 42.72 14.8412 39.85 14.0112 35.54C13.6112 33.45 14.0412 31.34 15.2412 29.59C16.4312 27.85 18.2412 26.67 20.3312 26.29C22.3012 25.93 24.3312 26.32 26.0312 27.38C26.4912 27.67 27.0912 27.53 27.3812 27.07C27.6712 26.61 27.5312 26.01 27.0712 25.72C26.2012 25.18 25.2612 24.77 24.2912 24.52C24.1612 22.92 23.9712 21.6 23.8012 20.63C24.9812 21.06 26.2612 21.29 27.5912 21.29C28.1312 21.29 28.5712 20.85 28.5712 20.31C28.5712 19.77 28.1312 19.33 27.5912 19.33C22.6512 19.33 18.6412 15.43 18.6412 10.63C18.6412 5.82998 22.6412 1.95998 27.5812 1.95998C29.9012 1.95998 31.9912 2.83998 33.6012 4.51998C35.1312 6.09998 36.1712 8.32998 36.5412 10.81C37.9612 20.35 38.7212 27.98 38.7312 28.06V28.09C39.7612 36.02 40.6512 44.31 40.1612 51.2V51.19Z" fill="#B9DCB7"/>
</g>
<defs>
<clipPath id="clip0_751_5">
<rect width="41.76" height="70" fill="white" transform="translate(0.5)"/>
</clipPath>
</defs>
</svg>
