<svg width="46" height="50" viewBox="0 0 46 50" fill="none" xmlns="http://www.w3.org/2000/svg">
<g clip-path="url(#clip0_751_8)">
<path d="M45.2193 41.9402C45.0093 41.9202 44.8493 41.7502 44.8293 41.5502C44.2093 35.3302 34.7293 2.24019 34.7293 2.24019L24.3693 0.730188C24.1893 0.700188 24.0193 0.840188 24.0093 1.03019C24.0093 1.15019 23.9893 1.30019 23.9393 1.49019C23.9093 1.63019 23.9193 1.78019 23.9693 1.91019L24.1993 2.45019C25.6693 5.72019 27.1593 11.9002 28.4993 18.7202L27.5293 18.4602C27.5293 18.4602 17.0893 16.1302 12.7893 15.5002L12.8293 15.3602C12.8293 15.3602 14.1693 14.5902 16.1693 12.2202L16.2693 12.1002C16.3793 11.9702 16.6393 11.6602 16.8593 11.3402C17.0593 11.0502 17.0593 10.6702 16.8793 10.3702C15.1293 7.53019 9.62931 -0.579812 7.78931 0.030188C7.78931 0.030188 7.13931 0.0501879 7.11931 0.830188C7.10931 0.840188 0.779312 7.40019 0.519312 8.38019C0.519312 8.38019 0.349312 8.85019 0.929312 9.17019C1.50931 9.49019 8.66931 12.0702 10.3493 14.0402C10.3493 14.0402 5.85931 16.4502 2.89931 17.3302C2.89931 17.3302 2.29931 17.3502 2.38931 18.4702C2.48931 19.5902 3.09931 38.7202 3.14931 39.8402C3.19931 40.9602 3.75931 40.6402 4.19931 40.5402C4.63931 40.4402 5.21931 40.9402 5.21931 40.9402C5.21931 40.9402 20.3293 49.0302 24.3893 49.9502C24.3893 49.9502 24.9793 50.2502 25.9793 49.3602C26.8093 48.6202 30.4193 46.3502 32.5993 44.0002C32.8593 45.9002 33.0593 47.3702 33.1693 48.2202C33.2193 48.6302 33.6693 48.8602 34.0393 48.6702C36.6693 47.2702 45.2293 42.6902 45.4293 42.4402C45.6593 42.1502 45.4493 41.9602 45.2093 41.9402H45.2193ZM27.5693 39.9202C26.7193 39.8902 12.5493 32.0602 12.3893 31.3902C12.2493 30.7902 11.8593 22.2802 11.8493 19.3102C14.7993 20.1402 26.6693 23.4302 29.4193 23.6502C30.3093 28.6202 31.0993 33.6302 31.7393 37.8802C30.4893 38.6202 28.1893 39.9502 27.5793 39.9202H27.5693Z" fill="#FF90F3"/>
</g>
<defs>
<clipPath id="clip0_751_8">
<rect width="45.04" height="50" fill="white" transform="translate(0.5)"/>
</clipPath>
</defs>
</svg>
