<svg width="71" height="50" viewBox="0 0 71 50" fill="none" xmlns="http://www.w3.org/2000/svg">
<g clip-path="url(#clip0_751_11)">
<path d="M70.2992 44.0199C54.7892 40.1899 45.3992 20.4899 45.3992 20.4899C44.7392 19.8999 44.0692 19.5899 43.4392 19.4699H65.1892L68.5092 19.4799C69.2792 18.0199 68.5092 16.4799 68.5092 16.4799C68.2792 15.6399 68.1792 14.8899 68.1592 14.2599C68.1892 13.6199 68.2892 12.8799 68.5092 12.0399C68.5092 12.0399 69.2792 10.4999 68.5092 9.03994H68.1292V9.00994H48.5292C45.1892 4.78994 43.2792 0.869935 43.2792 0.869935C41.1392 -1.05007 38.8992 0.869935 38.8992 0.869935C37.6692 1.43993 36.5792 1.68993 35.6492 1.74993C34.7192 1.68993 33.6392 1.43993 32.3992 0.869935C32.3992 0.869935 30.1592 -1.05007 28.0192 0.869935C28.0192 0.869935 26.0992 4.78994 22.7692 9.00994H3.77915V9.03994H2.99915C2.22915 10.4999 2.99915 12.0399 2.99915 12.0399C3.22915 12.8799 3.32915 13.6299 3.34915 14.2599C3.31915 14.8999 3.21915 15.6399 2.99915 16.4799C2.99915 16.4799 2.22915 18.0199 2.99915 19.4799H6.31915L13.5392 19.4699H27.8892C27.2592 19.5899 26.5892 19.8999 25.9292 20.4899C25.9292 20.4899 16.5392 40.1899 1.02915 44.0199C1.02915 44.0199 0.279152 44.6599 0.539152 45.0099C0.539152 45.0099 3.33915 49.4499 14.7492 50.0099C21.4092 46.3499 29.1092 39.7899 35.0592 27.9999L35.6592 27.1599L36.2592 27.9999C42.1992 39.7899 49.9092 46.3599 56.5692 50.0099C67.9792 49.4499 70.7792 45.0099 70.7792 45.0099C71.0392 44.6599 70.2892 44.0199 70.2892 44.0199H70.2992ZM35.6692 6.06993L36.1392 6.72993C36.5192 7.47993 36.9892 8.28993 37.3892 8.98993H33.9492C34.3492 8.27993 34.8292 7.47993 35.1992 6.72993L35.6692 6.06993ZM35.6692 21.6199C34.4892 21.5399 33.0992 21.2199 31.5292 20.4899C31.5292 20.4899 30.6092 19.7099 29.3292 19.4699H42.0192C40.7292 19.7099 39.8192 20.4899 39.8192 20.4899C38.2492 21.2199 36.8592 21.5399 35.6792 21.6199H35.6692Z" fill="#FF90F3"/>
</g>
<defs>
<clipPath id="clip0_751_11">
<rect width="70.34" height="50" fill="white" transform="translate(0.5)"/>
</clipPath>
</defs>
</svg>
