<svg width="52" height="50" viewBox="0 0 52 50" fill="none" xmlns="http://www.w3.org/2000/svg">
<g clip-path="url(#clip0_751_14)">
<path d="M51.61 43.63C50.44 39.92 46.35 37.67 46.35 37.67C45.01 36.89 44.52 37.96 44.48 38.41C44.46 38.6 44.21 39.55 44.21 39.55C43.9 41 43.41 41.71 43.13 42.02C40.95 44.1 36.46 44.46 32.74 43.97C29.05 43.48 25.79 42.19 23.06 40.14C13.5 32.97 13.83 12.37 14.06 7.22H46.59C46.4 0.84 37.24 0 37.24 0H0.5V6.04C0.5 6.04 0.5 6.19 0.5 6.41V7.21C0.54 10.27 0.76 18.63 2.12 23.98C3.11 27.9 4.48 31.47 6.2 34.59C8.41 38.62 11.21 41.92 14.5 44.4C18.28 47.25 22.73 49.03 27.73 49.7C29.21 49.9 30.74 49.99 32.33 49.99C36.59 49.99 41.23 49.65 46.16 48.24C52.65 46.14 51.61 43.62 51.61 43.62V43.63Z" fill="#FF90F3"/>
</g>
<defs>
<clipPath id="clip0_751_14">
<rect width="51.17" height="50" fill="white" transform="translate(0.5)"/>
</clipPath>
</defs>
</svg>
