<svg width="35" height="70" viewBox="0 0 35 70" fill="none" xmlns="http://www.w3.org/2000/svg">
<g clip-path="url(#clip0_751_17)">
<path d="M33.2303 12.1299C33.2303 12.1299 33.2303 12.1299 33.2303 12.1199C33.2303 10.4699 33.0503 7.48989 33.8403 6.09989C35.0603 3.95989 32.3803 1.90989 31.0703 0.96989C29.6303 -0.0601103 27.8203 -0.60011 27.8203 1.08989C27.8203 18.1699 27.9703 66.5399 27.9703 66.5399C27.9703 66.5399 27.9903 68.9599 28.2003 69.2099C28.5203 69.7099 29.7903 70.6399 31.6703 69.3699C33.1303 68.3799 33.1303 67.0599 33.1403 66.9699C33.1403 66.9499 33.1403 66.9299 33.1403 66.9099L33.2203 12.1199C33.2203 12.1199 33.2203 12.1199 33.2203 12.1299H33.2303ZM33.2303 12.2399C33.2303 12.2399 33.2303 12.1899 33.2303 12.1699C33.2303 12.1899 33.2303 12.2199 33.2303 12.2399Z" fill="#B9DCB7"/>
<path d="M23.4194 7.84011C24.2594 5.93011 20.8894 3.53011 19.8494 3.08011C18.6294 2.56011 17.3094 2.35011 17.3194 3.65011C17.3394 9.57011 17.4694 17.3001 17.5494 31.0601C11.5194 30.3201 2.81938 29.9301 0.67938 33.4401C0.67938 33.4401 0.0193799 34.8101 1.25938 36.1501C3.14938 38.1801 10.0994 39.4101 13.0994 37.5301C13.5794 37.2301 13.5094 36.5101 12.9694 36.3201C11.0694 35.6301 10.8494 34.6301 12.6294 34.2401C13.6094 34.0201 16.0694 33.9601 17.5694 34.7001C17.6494 48.6601 17.7494 62.0401 17.7494 62.0401C17.7494 62.0401 17.6794 65.8401 17.8894 66.3601C18.0994 66.8801 18.4694 67.3801 19.5994 67.3301C20.7294 67.2801 22.2294 66.3801 22.4994 65.4101C22.9594 63.7101 22.7194 61.5401 22.6994 55.9701C22.6394 41.0701 22.4994 13.7901 22.4994 13.7901C22.4994 13.7901 22.4994 13.7901 22.4994 13.8001C22.4994 13.8001 22.4994 13.8001 22.4994 13.7901C22.4994 12.1401 22.7694 9.29011 23.4194 7.82011V7.84011ZM22.4994 13.9401C22.4994 13.9401 22.4994 13.8901 22.4994 13.8701C22.4994 13.8901 22.4994 13.9201 22.4994 13.9401Z" fill="#B9DCB7"/>
</g>
<defs>
<clipPath id="clip0_751_17">
<rect width="33.65" height="70" fill="white" transform="translate(0.5)"/>
</clipPath>
</defs>
</svg>
