<svg width="29" height="70" viewBox="0 0 29 70" fill="none" xmlns="http://www.w3.org/2000/svg">
<g clip-path="url(#clip0_751_21)">
<path d="M20.28 0.95995C19.8 0.0399501 18.64 -0.27005 17.75 0.26995L5.17 7.96995C4.38 8.45995 4.08 9.45995 4.49 10.3C5.7 12.74 8.02 18.11 9.27 25.75H2.29C1.3 25.75 0.5 26.55 0.5 27.54V42.29C0.5 43.28 1.3 44.08 2.29 44.08H9.67C9.04 49.62 7.68 55.6799 5.27 62.1399C4.93 63.0599 5.37 64.0899 6.28 64.4599L19.97 69.8899C20.9 70.2599 21.96 69.7999 22.31 68.8699C35.44 34.02 23.84 7.71995 20.28 0.95995Z" fill="#B9DCB7"/>
</g>
<defs>
<clipPath id="clip0_751_21">
<rect width="27.91" height="70" fill="white" transform="translate(0.5)"/>
</clipPath>
</defs>
</svg>
