<svg width="61" height="16" viewBox="0 0 61 16" fill="none" xmlns="http://www.w3.org/2000/svg">
<g clip-path="url(#clip0_751_24)">
<path d="M58.45 0C57.32 0 56.4 0.92 56.4 2.05C56.4 4.45 55.46 6.72 53.74 8.43C52.02 10.14 49.76 11.09 47.36 11.09H13.64C11.24 11.09 8.97 10.15 7.26 8.43C6.05 7.22 5.22 5.73 4.84 4.11H45.04C46.17 4.11 47.09 3.19 47.09 2.06C47.09 0.93 46.17 0.01 45.04 0.01H2.55C1.42 0 0.5 0.92 0.5 2.05C0.5 8.92 5.8 14.58 12.53 15.14C12.67 15.17 12.82 15.19 12.97 15.19H47.36C54.6 15.19 60.5 9.3 60.5 2.05C60.5 0.92 59.58 0 58.45 0Z" fill="#B9DCB7"/>
</g>
<defs>
<clipPath id="clip0_751_24">
<rect width="60" height="15.19" fill="white" transform="translate(0.5)"/>
</clipPath>
</defs>
</svg>
