<svg width="49" height="50" viewBox="0 0 49 50" fill="none" xmlns="http://www.w3.org/2000/svg">
<g clip-path="url(#clip0_751_30)">
<path d="M46.72 0.349819C46 -0.080181 45.12 -0.080181 44.33 0.199819C40.19 1.70982 8.97 1.70982 4.82 0.199819C4.04 -0.0901809 3.15 -0.080181 2.43 0.349819C1.13 1.11982 0.5 2.72982 0.5 4.58982C0.5 7.20982 1.75 9.32982 4.37 9.32982C14.33 9.74982 24.38 9.73982 36.59 9.50982V10.5398C36.59 11.0698 37.02 11.4998 37.55 11.4998H39.22C38.62 14.2498 37.53 17.8498 35.54 21.7498C29.75 33.0798 18.53 41.4798 4.08 46.7098C3.2 47.0298 2.74 47.9998 3.06 48.8798C3.31 49.5698 3.96 49.9998 4.65 49.9998C4.84 49.9998 5.04 49.9698 5.23 49.8998C24.36 42.9798 33.44 31.5198 37.68 23.1298C39.96 18.6298 41.13 14.5398 41.73 11.4998H43.23C43.76 11.4998 44.19 11.0698 44.19 10.5398V9.34982C44.39 9.34982 44.58 9.34982 44.78 9.33982C47.4 9.33982 48.65 7.21982 48.65 4.59982C48.65 2.73982 48.02 1.12982 46.72 0.349819Z" fill="#FF90F3"/>
</g>
<defs>
<clipPath id="clip0_751_30">
<rect width="48.15" height="50" fill="white" transform="translate(0.5)"/>
</clipPath>
</defs>
</svg>
