<svg width="46" height="50" viewBox="0 0 46 50" fill="none" xmlns="http://www.w3.org/2000/svg">
<g clip-path="url(#clip0_751_27)">
<path d="M45.3013 17.0698C45.3013 17.0698 45.2713 17.0698 45.2513 17.0598C44.8513 16.9598 34.9013 14.6598 24.5913 12.4898L26.9413 8.44981C27.4013 8.64981 29.4413 10.1998 30.2813 10.8498C30.4813 10.9998 30.6613 11.1798 30.8213 11.3598C31.3013 11.8898 31.7413 11.6098 31.9313 11.4398C32.0913 11.2898 32.2613 11.1398 32.4313 10.9998C34.1913 9.55981 36.0613 8.51981 37.0013 7.78981C37.0313 7.76981 37.0513 7.74981 37.0713 7.72981C37.6813 7.21981 37.7413 6.28981 37.2213 5.67981C35.8213 4.03981 32.8313 1.10981 31.5813 0.329811C30.8613 -0.120189 30.2213 -0.0201892 29.7813 0.169811C29.5013 0.289811 29.2513 0.479811 29.0513 0.709811C28.2513 1.61981 26.9213 2.50981 25.8613 3.13981C24.8913 3.70981 23.8313 4.07981 22.7213 4.25981C18.4613 4.92981 17.2213 5.68981 16.7413 5.72981C16.2113 5.77981 16.2313 6.27981 16.2313 6.27981C16.3513 7.18981 15.6313 9.82981 15.4013 10.6298C7.73134 9.12981 1.56134 8.14981 1.48134 8.83981C1.48134 8.83981 0.311336 10.1898 0.501336 13.2598C0.501336 13.2598 0.731336 13.7998 1.70134 13.7998C2.67134 13.7998 21.3813 16.2998 22.6313 16.4698L21.3213 17.7098C21.3213 17.7098 21.0613 18.1798 20.1613 18.1098C19.4413 18.0498 12.2513 17.6598 9.52134 17.5098C8.76134 17.4698 8.09134 17.9898 7.95134 18.7398C7.95134 18.7498 7.95134 18.7598 7.95134 18.7698C7.74134 19.8998 2.15134 35.9798 2.50134 42.0598C2.50134 42.0598 2.81134 42.7398 3.90134 43.2998C4.99134 43.8598 19.2913 48.3598 31.7113 49.6998L34.2613 50.0098C34.2613 50.0098 34.9813 45.0098 35.4813 40.7398L35.9513 37.3598C35.9513 37.3598 40.1713 33.4998 42.8813 32.2198C42.8813 32.2198 43.7713 31.5798 42.7813 30.0498C41.7913 28.5298 36.9013 22.6898 30.6513 17.8098C35.2213 18.6498 40.3713 19.7398 42.0013 20.6098C42.0013 20.6098 42.6613 21.0198 43.0713 20.6098C43.4213 20.2598 44.0713 18.6298 45.3513 18.0598C45.8113 17.8598 45.7713 17.1998 45.2913 17.0698H45.3013ZM15.4913 34.7198C15.4913 34.7198 14.3113 34.5398 14.5113 33.3698C14.7113 32.2098 15.3213 26.6198 17.6713 21.5398C17.6713 21.5398 18.8513 20.5398 19.4013 20.8498C19.4013 20.8498 24.5213 23.8798 33.1613 35.6198C28.4613 35.8698 19.1513 36.1498 15.4813 34.7098L15.4913 34.7198Z" fill="#FF90F3"/>
</g>
<defs>
<clipPath id="clip0_751_27">
<rect width="45.18" height="50" fill="white" transform="translate(0.5)"/>
</clipPath>
</defs>
</svg>
