<svg width="24" height="70" viewBox="0 0 24 70" fill="none" xmlns="http://www.w3.org/2000/svg">
<g clip-path="url(#clip0_751_33)">
<path d="M12.6587 0C12.9487 0 13.2487 0 13.5487 0C13.6787 0.01 13.8087 0.03 13.9287 0.04C15.0587 0.14 16.1387 0.43 17.1687 0.93C18.6287 1.65 19.7987 2.69 20.7687 3.99C21.8387 5.42 22.5687 7.02 23.0887 8.71C23.5387 10.16 23.6787 11.65 23.6987 13.16C23.7187 14.73 23.5887 16.29 23.3887 17.85C23.1687 19.52 22.8487 21.17 22.4787 22.8C21.8487 25.56 21.0587 28.27 20.1787 30.96C19.2587 33.76 18.2487 36.52 17.1587 39.25C15.3387 43.83 13.3487 48.33 11.1787 52.75C11.1187 52.87 11.0587 53 10.9887 53.14C11.0187 53.14 11.0387 53.14 11.0487 53.13C11.8287 52.86 12.6287 52.74 13.4487 52.74C14.6987 52.75 15.8487 53.08 16.9087 53.72C17.9187 54.34 18.7287 55.17 19.3987 56.14C19.8487 56.78 20.2187 57.45 20.4387 58.2C20.8387 59.57 20.8387 60.95 20.5287 62.34C20.0787 64.36 19.1287 66.11 17.6587 67.57C16.8387 68.38 15.8887 69.02 14.8087 69.44C13.4387 69.98 12.0187 70.12 10.5587 69.88C9.18866 69.65 7.91865 69.17 6.76865 68.38C5.46865 67.49 4.53866 66.29 3.87866 64.87C3.28866 63.59 2.95866 62.24 2.76866 60.85C2.59866 59.54 2.54865 58.23 2.58865 56.91C2.61865 55.64 2.72866 54.37 2.87866 53.11C3.05866 51.62 3.30865 50.14 3.59865 48.67C4.01865 46.56 4.51865 44.48 5.05865 42.4C5.85865 39.34 6.76865 36.31 7.68865 33.28C8.49865 30.61 9.32866 27.95 10.0387 25.25C10.4987 23.49 10.9187 21.72 11.0187 19.9C11.0687 19.03 11.1087 18.16 11.0087 17.3C10.9587 16.91 10.8887 16.52 10.6987 16.16C10.5087 15.8 10.2187 15.59 9.79866 15.62C9.57866 15.64 9.35865 15.69 9.14865 15.76C8.57865 15.95 8.05866 16.26 7.52866 16.54C6.79866 16.93 6.05865 17.31 5.26865 17.57C4.48865 17.82 3.68866 17.93 2.88866 17.73C1.81866 17.47 1.07866 16.85 0.748655 15.77C0.508655 14.96 0.478655 14.14 0.548655 13.31C0.628655 12.32 0.858655 11.36 1.16866 10.42C1.86866 8.3 2.93866 6.39 4.32866 4.65C5.04866 3.75 5.83865 2.91 6.74865 2.2C8.35865 0.92 10.2087 0.23 12.2587 0.04C12.3887 0.03 12.5187 0.01 12.6587 0Z" fill="#B9DCB7"/>
</g>
<defs>
<clipPath id="clip0_751_33">
<rect width="23.2" height="70" fill="white" transform="translate(0.5)"/>
</clipPath>
</defs>
</svg>
