<svg width="63" height="50" viewBox="0 0 63 50" fill="none" xmlns="http://www.w3.org/2000/svg">
<g clip-path="url(#clip0_751_36)">
<path d="M59.7381 44.32C61.4833 44.32 62.8981 42.9052 62.8981 41.16C62.8981 39.4148 61.4833 38 59.7381 38C57.9929 38 56.5781 39.4148 56.5781 41.16C56.5781 42.9052 57.9929 44.32 59.7381 44.32Z" fill="#FF90F3"/>
<path d="M59.7381 6.32C61.4833 6.32 62.8981 4.90522 62.8981 3.16C62.8981 1.41478 61.4833 0 59.7381 0C57.9929 0 56.5781 1.41478 56.5781 3.16C56.5781 4.90522 57.9929 6.32 59.7381 6.32Z" fill="#FF90F3"/>
<path d="M5.48 4.96984H1.32C0.87 4.96984 0.5 4.50984 0.5 3.92984V2.37984C0.5 1.80984 0.87 1.33984 1.32 1.33984H5.48C5.93 1.33984 6.3 1.79984 6.3 2.37984V3.92984C6.3 4.49984 5.93 4.96984 5.48 4.96984Z" fill="#FF90F3"/>
<path d="M14.6714 4.96984H10.5114C10.0614 4.96984 9.69141 4.50984 9.69141 3.92984V2.37984C9.69141 1.80984 10.0614 1.33984 10.5114 1.33984H14.6714C15.1214 1.33984 15.4914 1.79984 15.4914 2.37984V3.92984C15.4914 4.49984 15.1214 4.96984 14.6714 4.96984Z" fill="#FF90F3"/>
<path d="M23.8511 4.96984H19.6911C19.2411 4.96984 18.8711 4.50984 18.8711 3.92984V2.37984C18.8711 1.80984 19.2411 1.33984 19.6911 1.33984H23.8511C24.3011 1.33984 24.6711 1.79984 24.6711 2.37984V3.92984C24.6711 4.49984 24.3011 4.96984 23.8511 4.96984Z" fill="#FF90F3"/>
<path d="M33.0308 4.96984H28.8708C28.4208 4.96984 28.0508 4.50984 28.0508 3.92984V2.37984C28.0508 1.80984 28.4208 1.33984 28.8708 1.33984H33.0308C33.4808 1.33984 33.8508 1.79984 33.8508 2.37984V3.92984C33.8508 4.49984 33.4808 4.96984 33.0308 4.96984Z" fill="#FF90F3"/>
<path d="M42.2183 4.96984H38.0583C37.6083 4.96984 37.2383 4.50984 37.2383 3.92984V2.37984C37.2383 1.80984 37.6083 1.33984 38.0583 1.33984H42.2183C42.6683 1.33984 43.0383 1.79984 43.0383 2.37984V3.92984C43.0383 4.49984 42.6683 4.96984 42.2183 4.96984Z" fill="#FF90F3"/>
<path d="M51.4019 4.96984H47.2419C46.7919 4.96984 46.4219 4.50984 46.4219 3.92984V2.37984C46.4219 1.80984 46.7919 1.33984 47.2419 1.33984H51.4019C51.8519 1.33984 52.2219 1.79984 52.2219 2.37984V3.92984C52.2219 4.49984 51.8519 4.96984 51.4019 4.96984Z" fill="#FF90F3"/>
<path d="M60.5413 4.96984H56.1413C55.6613 4.96984 55.2812 4.50984 55.2812 3.92984V2.37984C55.2812 1.80984 55.6713 1.33984 56.1413 1.33984H60.5413C61.0213 1.33984 61.4013 1.79984 61.4013 2.37984V3.92984C61.4013 4.49984 61.0113 4.96984 60.5413 4.96984Z" fill="#FF90F3"/>
<path d="M42.4107 34.1301C43.7607 35.2501 45.2507 36.3401 46.9007 37.3701C47.3107 37.6301 47.8507 37.5201 48.1207 37.1201L49.1407 35.6401C49.4307 35.2201 49.3107 34.6301 48.8707 34.3601C47.3507 33.4201 45.9707 32.4301 44.7307 31.4001C44.3507 31.0901 43.8007 31.1301 43.4707 31.5001L42.3007 32.8401C41.9707 33.2201 42.0107 33.8001 42.4007 34.1201L42.4107 34.1301Z" fill="#FF90F3"/>
<path d="M35.1509 25.9999C36.1109 27.4799 37.2509 28.9699 38.5809 30.4499C38.9409 30.8499 39.5809 30.8499 39.9309 30.4399L41.1009 29.0999C41.4009 28.7599 41.3909 28.2499 41.1009 27.9099C40.0109 26.6899 39.0609 25.4399 38.2309 24.1899C37.9709 23.7999 37.4709 23.6699 37.0609 23.8899L35.5009 24.7099C35.0309 24.9599 34.8709 25.5599 35.1609 25.9999H35.1509Z" fill="#FF90F3"/>
<path d="M52.2419 37.09L51.2019 38.6C50.8819 39.06 51.0519 39.69 51.5519 39.93C53.6319 40.92 55.9119 41.83 58.4119 42.63C58.8919 42.78 59.4019 42.51 59.5519 42.03L60.0819 40.29C60.2219 39.82 59.9619 39.32 59.4919 39.17C57.2719 38.46 55.2319 37.66 53.3619 36.79C52.9619 36.6 52.4919 36.73 52.2419 37.1V37.09Z" fill="#FF90F3"/>
<path d="M2.26125 47.7002L2.88125 49.4102C3.05125 49.8802 3.58125 50.1201 4.05125 49.9401C5.78125 49.2801 7.40125 48.5502 8.93125 47.7702C9.39125 47.5402 9.56125 46.9601 9.30125 46.5101L8.39125 44.9401C8.15125 44.5301 7.63125 44.3702 7.20125 44.5902C5.81125 45.2902 4.34125 45.9502 2.77125 46.5502C2.31125 46.7302 2.08125 47.2402 2.25125 47.7002H2.26125Z" fill="#FF90F3"/>
<path d="M11.3106 43.25L12.2106 44.81C12.4706 45.26 13.0606 45.4 13.4906 45.11C15.0306 44.08 16.4606 43 17.7706 41.86C18.1706 41.52 18.1906 40.91 17.8206 40.54L16.5606 39.28C16.2306 38.95 15.7006 38.93 15.3406 39.23C14.1906 40.21 12.9406 41.15 11.5906 42.04C11.1906 42.3 11.0706 42.83 11.3106 43.24V43.25Z" fill="#FF90F3"/>
<path d="M24.6388 29.3102L26.0988 30.1502C26.5388 30.4102 27.1088 30.2402 27.3488 29.7902C28.0088 28.5402 28.5988 27.2902 29.1188 26.0602C29.3288 25.5602 29.0588 24.9902 28.5388 24.8402L26.9188 24.3702C26.4788 24.2402 26.0188 24.4602 25.8388 24.8802C25.3888 25.9502 24.8688 27.0202 24.2988 28.1002C24.0688 28.5302 24.2188 29.0602 24.6488 29.3002L24.6388 29.3102Z" fill="#FF90F3"/>
<path d="M19.001 36.9601L20.231 38.1901C20.601 38.5601 21.191 38.5401 21.541 38.1501C22.661 36.9001 23.671 35.6101 24.591 34.3001C24.891 33.8701 24.761 33.2701 24.301 33.0001L22.811 32.1401C22.411 31.9101 21.901 32.0201 21.631 32.4001C20.831 33.5201 19.941 34.6301 18.971 35.7101C18.651 36.0701 18.661 36.6101 19.001 36.9501V36.9601Z" fill="#FF90F3"/>
<path d="M33.0194 8.63979C33.0194 8.05979 32.9794 7.67979 32.9694 7.52979C32.9694 7.49979 32.9694 7.46979 32.9694 7.43979C32.9594 6.86979 32.9694 6.37979 32.9694 5.98979C32.9894 5.40979 32.5594 4.91979 31.9894 4.85979L30.5794 4.70979C29.9394 4.63979 29.3794 5.12979 29.3694 5.76979C29.3594 6.26979 29.3494 6.89979 29.3794 7.65979H29.3694C29.3694 7.65979 29.3694 7.70979 29.3794 7.75979C29.3794 7.78979 29.3794 7.80979 29.3794 7.83979C29.3894 8.13979 29.4094 8.46979 29.4294 8.80979C29.4294 8.82979 29.4294 8.84979 29.4294 8.86979C29.4294 9.04979 29.4294 9.24979 29.4294 9.46979C29.4094 10.0898 29.9094 10.5998 30.5294 10.5998H31.9894C32.6394 10.5998 33.1394 10.0398 33.0894 9.39979C33.0694 9.15979 33.0494 8.92979 33.0294 8.70979C33.0294 8.68979 33.0294 8.65979 33.0294 8.63979H33.0194Z" fill="#FF90F3"/>
<path d="M32.4691 12.78H30.2691C29.6891 12.78 29.1791 13.16 29.0191 13.71C28.9291 14.01 28.8491 14.29 28.8391 14.38C28.7691 14.84 28.6791 15.32 28.5891 15.8C28.3291 17.16 27.9891 18.59 27.5591 20.07C27.4091 20.57 27.6991 21.09 28.1991 21.23L30.1791 21.8C30.4291 21.87 30.6891 21.73 30.7691 21.48C30.9091 21.02 31.0391 20.56 31.1691 20.11C31.2691 19.73 31.4091 17.33 31.8591 19.14C32.0791 20.03 32.3891 20.9 32.7791 21.73C32.7791 21.73 32.7791 21.74 32.7891 21.75C32.9091 22 33.1991 22.1 33.4491 21.97L35.4291 20.93C35.8391 20.71 36.0091 20.22 35.8191 19.8C34.9591 17.9 34.3591 16.05 33.9291 14.34C33.9091 14.26 33.8291 13.99 33.7491 13.71C33.5791 13.15 33.0691 12.77 32.4891 12.77L32.4691 12.78Z" fill="#FF90F3"/>
</g>
<defs>
<clipPath id="clip0_751_36">
<rect width="62.4" height="50" fill="white" transform="translate(0.5)"/>
</clipPath>
</defs>
</svg>
