<svg width="79" height="50" viewBox="0 0 79 50" fill="none" xmlns="http://www.w3.org/2000/svg">
<g clip-path="url(#clip0_751_56)">
<path d="M77.54 0H3.92998C3.62998 0 3.38998 0.24 3.38998 0.54V10.82C3.38998 11.12 3.62998 11.36 3.92998 11.36H34.35C34.87 11.36 35.08 12.02 34.67 12.33L0.709981 38.82C0.469981 39 0.429981 39.33 0.599981 39.57L6.39998 47.29C6.57998 47.53 6.90998 47.57 7.14998 47.4L37.18 24.82C37.42 24.64 37.75 24.69 37.93 24.93L40.96 28.76C41.14 29 41.47 29.04 41.71 28.87L49.43 23.07C49.67 22.89 49.71 22.56 49.54 22.32L46.23 18.12C46.16 18.03 46.12 17.91 46.12 17.8V11.92C46.12 11.62 46.36 11.38 46.66 11.38H66.52C67.04 11.38 67.25 12.04 66.84 12.35L32.27 38.34C32.03 38.52 31.99 38.85 32.16 39.09L38.34 47.31C38.52 47.55 38.85 47.59 39.09 47.42L56.61 34.25C56.85 34.07 57.18 34.12 57.36 34.36L68.98 49.82C69.16 50.06 69.49 50.1 69.73 49.93L77.45 44.13C77.69 43.95 77.73 43.62 77.56 43.38L65.94 27.92C65.76 27.68 65.81 27.35 66.05 27.17L78.07 18.13V0.54C78.07 0.24 77.83 0 77.53 0H77.54Z" fill="#FF90F3"/>
</g>
<defs>
<clipPath id="clip0_751_56">
<rect width="77.58" height="50" fill="white" transform="translate(0.5)"/>
</clipPath>
</defs>
</svg>
