<svg width="51" height="50" viewBox="0 0 51 50" fill="none" xmlns="http://www.w3.org/2000/svg">
<g clip-path="url(#clip0_751_59)">
<path d="M33.48 0H17.52C8.14 0 0.5 7.64 0.5 17.02C0.5 18.49 1.69 19.68 3.16 19.68C4.63 19.68 5.82 18.49 5.82 17.02C5.82 13.91 7.04 10.98 9.26 8.76C11.48 6.54 14.41 5.32 17.52 5.32H33.48C36.59 5.32 39.52 6.54 41.74 8.76C43.96 10.98 45.18 13.91 45.18 17.02V22.34H15.93C14.46 22.34 13.27 23.53 13.27 25C13.27 26.47 14.46 27.66 15.93 27.66H45.18V32.98C45.18 36.09 43.96 39.02 41.74 41.24C39.52 43.46 36.59 44.68 33.48 44.68C32.01 44.68 30.82 45.87 30.82 47.34C30.82 48.81 32.01 50 33.48 50C42.87 50 50.5 42.36 50.5 32.98V17.02C50.5 7.64 42.86 0 33.48 0Z" fill="#FF90F3"/>
</g>
<defs>
<clipPath id="clip0_751_59">
<rect width="50" height="50" fill="white" transform="translate(0.5)"/>
</clipPath>
</defs>
</svg>
