<svg width="65" height="50" viewBox="0 0 65 50" fill="none" xmlns="http://www.w3.org/2000/svg">
<g clip-path="url(#clip0_751_62)">
<path d="M60.09 16.6102C58.9 14.7402 57.5 13.0602 55.94 11.5902C50.45 6.4102 42.67 4.6602 35.5 6.5102L34.02 8.8102L33.12 7.3502C33.12 7.3502 33.1 7.3102 33.08 7.2902C31.84 5.2102 30.45 3.5702 29.12 2.3802C27.42 0.860202 25.21 0.0202017 22.93 0.0202017H1.47C0.93 0.000201696 0.5 0.430202 0.5 0.970202V17.6102C0.5 18.1502 0.93 18.5802 1.47 18.5802H17.18C17.61 18.5802 18 18.8702 18.11 19.2902C18.98 22.4302 19.16 27.9302 15.08 36.3302C14.85 36.8102 15.04 37.3802 15.51 37.6202L30.34 45.1602C30.82 45.4102 31.41 45.2102 31.65 44.7202C35.65 36.5702 37.17 29.3802 37.19 23.2902L38.65 23.2402C41.8 23.2402 43.62 25.3502 44.42 26.6102C46.1 29.2402 46.31 32.5102 44.98 35.3702L41.94 41.3902C41.74 41.7802 41.9 42.2602 42.29 42.4602L57.09 49.9102C57.47 50.1002 57.93 49.9602 58.14 49.6002C58.14 49.6002 61.73 43.4002 61.83 43.1802C65.84 34.5302 65.18 24.5902 60.07 16.6002L60.09 16.6102Z" fill="#FF90F3"/>
</g>
<defs>
<clipPath id="clip0_751_62">
<rect width="63.95" height="50" fill="white" transform="translate(0.5)"/>
</clipPath>
</defs>
</svg>
