<svg width="66" height="50" viewBox="0 0 66 50" fill="none" xmlns="http://www.w3.org/2000/svg">
<g clip-path="url(#clip0_751_65)">
<path d="M64.32 42.29H52.3L59.74 5.08C59.86 4.42 59.4 3.81 58.8 3.81H22.16L21.73 0.85C21.66 0.36 21.28 0 20.83 0H6.83C6.27 0 5.84 0.56 5.93 1.18L12.18 42.29H1.3C0.86 42.29 0.5 42.65 0.5 43.09V45.14C0.5 45.58 0.86 45.94 1.3 45.94H35.7L35.14 48.73C35.02 49.39 35.48 50 36.08 50H49.98C50.44 50 50.83 49.64 50.92 49.14L51.56 45.94H64.31C64.75 45.94 65.11 45.58 65.11 45.14V43.09C65.11 42.65 64.75 42.29 64.31 42.29H64.32ZM27.7 42.29L22.69 7.46H43.4L36.43 42.29H27.7Z" fill="#FF90F3"/>
</g>
<defs>
<clipPath id="clip0_751_65">
<rect width="64.62" height="50" fill="white" transform="translate(0.5)"/>
</clipPath>
</defs>
</svg>
