<svg width="50" height="50" viewBox="0 0 50 50" fill="none" xmlns="http://www.w3.org/2000/svg">
<g clip-path="url(#clip0_751_68)">
<path d="M49.2718 37.9302C43.8218 32.7402 17.9818 40.2902 8.67176 43.1002V3.98015C8.68176 1.90016 8.74176 -0.0198451 6.65176 0.000154884C5.93176 0.000154884 4.26176 0.800155 2.76176 2.34015C2.76176 2.34015 -0.348242 5.40015 0.731758 8.05015C1.34176 9.54015 2.78176 13.1102 3.02176 15.8602L2.71176 45.8702L6.18176 50.0102C14.3418 46.4302 28.6218 40.7802 30.5618 40.7402C32.7018 40.7002 33.4918 41.7602 31.7618 42.7202C31.2018 43.0302 31.2418 43.8402 31.8218 44.1102C35.4818 45.8302 46.8118 42.8002 48.9618 40.6502C50.4418 39.1802 49.2818 37.9402 49.2818 37.9402L49.2718 37.9302Z" fill="#FF90F3"/>
</g>
<defs>
<clipPath id="clip0_751_68">
<rect width="49.2" height="50" fill="white" transform="translate(0.5)"/>
</clipPath>
</defs>
</svg>
