<svg width="75" height="40" viewBox="0 0 75 40" fill="none" xmlns="http://www.w3.org/2000/svg">
<g clip-path="url(#clip0_751_77)">
<path d="M73.6091 27.2102C72.6691 26.5802 71.2791 26.6902 70.4991 27.4402L69.5791 28.3302L67.9291 27.2202C67.9291 27.2202 67.9191 27.2102 67.9091 27.2002C67.9091 27.2002 67.8891 27.2002 67.8791 27.1802L67.7591 27.1002C66.8291 26.5802 65.5391 26.7102 64.7991 27.4202L63.8791 28.3102L62.2291 27.2002C62.2291 27.2002 62.2191 27.1902 62.2091 27.1802C62.2091 27.1802 62.1891 27.1802 62.1791 27.1602L62.0591 27.0802C61.1291 26.5602 59.8391 26.6902 59.0991 27.4002L58.1791 28.2902L56.5291 27.1802C56.5291 27.1802 56.5191 27.1702 56.5091 27.1602C56.5091 27.1602 56.4891 27.1602 56.4791 27.1402L56.3591 27.0602C55.4291 26.5402 54.1391 26.6702 53.3991 27.3802L52.4791 28.2702L50.8291 27.1602C50.8291 27.1602 50.8191 27.1502 50.8091 27.1402C50.8091 27.1402 50.7891 27.1402 50.7791 27.1202L50.6591 27.0402C49.7291 26.5202 48.4391 26.6502 47.6991 27.3602L46.7791 28.2502L45.1291 27.1402C45.1291 27.1402 45.1191 27.1302 45.1091 27.1202C45.1091 27.1202 45.0891 27.1202 45.0791 27.1002L44.9591 27.0202C44.0291 26.5002 42.7391 26.6302 41.9991 27.3402L41.0791 28.2302L40.5791 27.8902C40.6691 27.5002 40.7191 27.0902 40.7191 26.6602V13.2002C41.0491 13.1402 41.3591 13.0202 41.6291 12.8402C42.5691 12.2102 42.6991 11.0902 41.9191 10.3302L41.6691 10.0802C42.3491 10.2702 43.1091 10.1002 43.6391 9.5702C44.4191 8.7902 44.4191 7.5202 43.6391 6.7302L43.1291 6.2202L43.3991 5.9502C44.7891 4.5602 44.7891 2.3202 43.3991 0.930195C42.0091 -0.459805 39.7691 -0.459805 38.3791 0.930195L38.1091 1.2002L37.3891 0.480195C36.6091 -0.299805 35.3391 -0.299805 34.5491 0.480195C33.9291 1.1002 33.7991 2.0302 34.1691 2.7802L32.0191 0.690195C31.2391 -0.0698047 29.8491 -0.169805 28.9091 0.460195C28.0591 1.0302 27.8791 2.0002 28.4191 2.7402L26.3091 0.690195C25.5291 -0.0698047 24.1391 -0.169805 23.1991 0.460195C22.3491 1.0302 22.1691 2.0002 22.7091 2.7402L20.5991 0.690195C19.8191 -0.0698047 18.4291 -0.169805 17.4891 0.460195C16.5491 1.0902 16.4191 2.2102 17.1991 2.9702L27.1091 12.6102C27.7791 13.2602 28.8991 13.4302 29.7991 13.0602V26.6602C29.7991 27.1202 29.8591 27.5702 29.9691 28.0002L29.7491 28.2102L28.1191 27.1202C28.1191 27.1202 28.1091 27.1102 28.0991 27.1002C28.0991 27.1002 28.0791 27.1002 28.0691 27.0802L27.9491 27.0002C27.0191 26.4802 25.7291 26.6102 24.9891 27.3202L24.0891 28.2002L22.4591 27.1102C22.4591 27.1102 22.4491 27.1002 22.4391 27.0902C22.4391 27.0902 22.4191 27.0902 22.4091 27.0702L22.2891 26.9902C21.3591 26.4702 20.0691 26.6002 19.3291 27.3102L18.4091 28.2002L16.7591 27.0902C16.7591 27.0902 16.7491 27.0802 16.7391 27.0702C16.7391 27.0702 16.7191 27.0702 16.7091 27.0502L16.5891 26.9702C15.6591 26.4502 14.3691 26.5802 13.6291 27.2902L10.9991 29.8502C11.5791 29.0602 11.5191 27.9502 10.8091 27.2402C10.0291 26.4602 8.75906 26.4602 7.96906 27.2402L7.06906 28.1402C7.06906 28.1402 7.00906 28.0702 6.96906 28.0402L6.53906 27.6102C5.14906 26.2202 2.90906 26.2202 1.51906 27.6102C0.129063 29.0002 0.129063 31.2402 1.51906 32.6302L1.94906 33.0602C1.94906 33.0602 2.01906 33.1302 2.04906 33.1602L1.70906 33.5002C0.929063 34.2802 0.929063 35.5502 1.70906 36.3402C2.29906 36.9302 3.14906 37.0702 3.87906 36.7802L3.71906 36.9402C2.93906 37.7002 3.06906 38.8202 4.00906 39.4502C4.94906 40.0802 6.33906 39.9702 7.11906 39.2202L9.22906 37.1702C8.67906 37.9102 8.86906 38.8802 9.71906 39.4502C10.6591 40.0802 12.0491 39.9702 12.8291 39.2202L14.8291 37.2702C14.3691 38.0002 14.5791 38.9102 15.3891 39.4502C16.3291 40.0802 17.7191 39.9702 18.4991 39.2202L20.4991 37.2702C20.0391 38.0002 20.2491 38.9102 21.0591 39.4502C21.9991 40.0802 23.3891 39.9702 24.1691 39.2202L26.0791 37.3602C25.6891 38.0702 25.9091 38.9302 26.6891 39.4502C27.6291 40.0802 29.0191 39.9702 29.7991 39.2202L31.9091 37.1702C31.3591 37.9102 31.5491 38.8802 32.3991 39.4502C33.3391 40.0802 34.7291 39.9702 35.5091 39.2202L37.6191 37.1702C37.0691 37.9102 37.2591 38.8802 38.1091 39.4502C39.0491 40.0802 40.4391 39.9702 41.2191 39.2202L43.3291 37.1702C42.7791 37.9102 42.9691 38.8802 43.8191 39.4502C44.7591 40.0802 46.1491 39.9702 46.9291 39.2202L49.0391 37.1702C48.4891 37.9102 48.6791 38.8802 49.5291 39.4502C50.4691 40.0802 51.8591 39.9702 52.6391 39.2202L54.7491 37.1702C54.1991 37.9102 54.3891 38.8802 55.2391 39.4502C56.1791 40.0802 57.5691 39.9702 58.3491 39.2202L60.4591 37.1702C59.9091 37.9102 60.0991 38.8802 60.9491 39.4502C61.8891 40.0802 63.2791 39.9702 64.0591 39.2202L73.9691 29.5802C74.7491 28.8202 74.6191 27.7002 73.6791 27.0702L73.6091 27.2102Z" fill="#B9DCB7"/>
</g>
<defs>
<clipPath id="clip0_751_77">
<rect width="73.91" height="40" fill="white" transform="translate(0.5)"/>
</clipPath>
</defs>
</svg>
