<svg width="66" height="70" viewBox="0 0 66 70" fill="none" xmlns="http://www.w3.org/2000/svg">
<g clip-path="url(#clip0_751_74)">
<path d="M63.5812 18.32C62.9312 17.67 62.1612 17.17 61.3212 16.84C66.0212 12.12 67.0412 5.50996 63.5812 2.04996C60.1212 -1.41004 53.4912 -0.380044 48.7712 4.33996C44.0512 9.05996 43.0312 15.69 46.4812 19.15C47.1312 19.8 47.9012 20.3 48.7412 20.63C44.0412 25.35 43.0212 31.96 46.4812 35.42C47.1312 36.07 47.9012 36.57 48.7412 36.9C46.4612 39.18 45.0512 41.91 44.5912 44.51C45.4012 44.84 46.1312 45.31 46.7312 45.92C47.3412 46.53 47.8212 47.26 48.1512 48.08C48.2212 48.25 48.1312 48.45 47.9612 48.52C47.9212 48.54 47.8812 48.54 47.8312 48.54C47.7012 48.54 47.5712 48.46 47.5212 48.33C47.2312 47.59 46.8012 46.94 46.2512 46.4C45.6612 45.81 44.9312 45.35 44.1112 45.06C41.5112 44.37 38.2812 45.11 35.4512 47.13C35.0912 47.57 34.7012 48 34.2912 48.42C33.6912 49.02 33.0511 49.57 32.3911 50.06C32.3311 50.1 32.2612 50.13 32.1912 50.13C32.0912 50.13 31.9812 50.08 31.9212 49.99C31.8112 49.84 31.8411 49.63 31.9911 49.52C32.6311 49.05 33.2412 48.52 33.8112 47.95C38.4212 43.34 39.4612 36.86 36.1112 33.52C32.7712 30.17 26.2912 31.21 21.6812 35.82C17.7112 39.79 16.3112 45.28 18.3412 48.88C18.4312 49.04 18.3711 49.25 18.2111 49.34C18.0511 49.43 17.8412 49.37 17.7512 49.21C17.2012 48.23 16.8712 47.11 16.7712 45.9C13.5012 43.75 8.23115 44.87 4.37115 48.73C0.121151 52.98 -0.798849 58.96 2.31115 62.07C5.42115 65.18 11.3812 64.27 15.6312 60.03C15.9412 60.79 16.3811 61.48 16.9711 62.07C20.0611 65.16 25.9611 64.28 30.2111 60.11C30.5111 60.84 30.9512 61.5 31.5112 62.07C34.5912 65.15 40.4612 64.28 44.7012 60.16V60.18C45.3712 59.45 45.9612 58.67 46.4512 57.85C46.5512 57.69 46.7512 57.64 46.9112 57.73C47.0712 57.83 47.1212 58.03 47.0312 58.19C46.4112 59.22 45.6612 60.19 44.7812 61.07C44.6812 61.17 44.5912 61.26 44.4912 61.35C44.1712 63.91 44.7912 66.31 46.4612 67.97C49.9212 71.43 56.5512 70.4 61.2712 65.68C65.9912 60.96 67.0112 54.33 63.5612 50.87C62.9112 50.22 62.1412 49.72 61.3012 49.39C66.0012 44.67 67.0212 38.06 63.5612 34.6C62.9112 33.95 62.1412 33.45 61.3012 33.12C66.0012 28.4 67.0212 21.79 63.5612 18.33L63.5812 18.32ZM48.6112 53.31C48.6212 53.25 48.6312 53.18 48.6512 53.12C48.6912 53.14 48.7212 53.15 48.7612 53.17C48.7112 53.22 48.6612 53.27 48.6212 53.32L48.6112 53.31Z" fill="#B9DCB7"/>
</g>
<defs>
<clipPath id="clip0_751_74">
<rect width="65.13" height="70" fill="white" transform="translate(0.5)"/>
</clipPath>
</defs>
</svg>
