<svg width="63" height="50" viewBox="0 0 63 50" fill="none" xmlns="http://www.w3.org/2000/svg">
<g clip-path="url(#clip0_751_80)">
<path d="M11.1712 0C11.3312 0 11.4812 0 11.6412 0C11.8412 0.03 12.0412 0.06 12.2412 0.09C12.9712 0.21 13.6112 0.49 14.1212 1.04C14.5312 1.47 14.7312 1.98 14.7212 2.58C14.7112 3 14.6012 3.39 14.4512 3.77C14.2412 4.3 13.9612 4.79 13.6712 5.28C13.4112 5.72 13.1512 6.16 12.8912 6.6C12.7112 6.92 12.5512 7.26 12.4612 7.62C12.3212 8.22 12.5012 8.65 13.0612 8.93C13.2612 9.03 13.4812 9.1 13.7012 9.16C14.3312 9.33 14.9712 9.36 15.6212 9.38C16.9712 9.43 18.2912 9.25 19.6012 8.99C21.3912 8.65 23.1612 8.19 24.9212 7.71C27.7612 6.93 30.5812 6.13 33.4212 5.35C36.8312 4.42 40.2612 3.59 43.7512 3.04C45.2012 2.81 46.6612 2.64 48.1312 2.55C49.7212 2.46 51.3112 2.47 52.8912 2.68C54.0312 2.83 55.1512 3.08 56.2312 3.49C58.5512 4.38 60.3012 5.9 61.3412 8.18C61.7912 9.17 62.1312 10.19 62.1312 11.29C62.1312 11.33 62.1512 11.38 62.1612 11.42V11.75C62.1512 11.83 62.1312 11.9 62.1212 11.98C62.1112 12.14 62.1212 12.3 62.0912 12.45C61.9312 13.61 61.4612 14.64 60.7212 15.54C59.7612 16.69 58.5512 17.47 57.1412 17.94C55.9712 18.33 54.7712 18.47 53.5312 18.29C52.0612 18.08 50.8412 17.4 49.8212 16.34C48.8112 15.29 48.3212 14.03 48.3112 12.58C48.3112 11.55 48.5212 10.57 48.9212 9.62C48.9512 9.54 48.9812 9.47 49.0212 9.36C47.6912 9.99 46.4012 10.6 45.0912 11.22C45.1612 11.31 45.2212 11.38 45.2812 11.45C46.8812 13.37 47.1612 16.11 45.9812 18.31C45.1612 19.83 44.4512 21.4 43.8412 23.01C42.9812 25.31 42.3012 27.66 42.0512 30.11C41.9212 31.37 41.9012 32.63 42.1312 33.88C42.3312 35 42.7012 36.05 43.3512 37C43.8512 37.72 44.4512 38.34 45.1912 38.81C46.3412 39.54 47.5912 39.82 48.9412 39.54C49.9412 39.34 50.8212 38.88 51.6012 38.22C52.2212 37.69 52.7212 37.06 53.1612 36.36C53.8812 35.22 54.9012 34.63 56.2612 34.78C58.2412 34.99 59.8012 36.89 59.0012 39.13C58.0712 41.78 56.4912 43.97 54.2312 45.64C51.1012 47.95 47.5912 48.76 43.7612 48.12C41.7012 47.77 39.8012 46.99 38.0512 45.86C37.9812 45.81 37.9112 45.77 37.8312 45.72C37.7512 45.78 37.6912 45.84 37.6212 45.89C34.6112 48.4 31.1712 49.79 27.2412 49.93C27.1812 49.93 27.1212 49.95 27.0612 49.96H26.5912C26.4712 49.95 26.3612 49.93 26.2412 49.92C25.3912 49.89 24.5512 49.79 23.7112 49.6C21.7012 49.16 19.8712 48.31 18.1812 47.14C17.2612 46.5 16.4112 45.8 15.7412 44.89C15.7212 44.87 15.7212 44.83 15.7112 44.76C15.6412 44.87 15.6112 44.91 15.5912 44.95C14.8212 46.34 13.6812 47.34 12.2512 48.01C10.6112 48.77 8.88122 49.05 7.07122 48.88C5.91122 48.77 4.82122 48.44 3.80122 47.87C2.42122 47.08 1.39122 45.98 0.841218 44.47C0.301218 42.95 0.351218 41.42 0.861218 39.91C1.52122 37.97 2.81122 36.57 4.60122 35.62C5.69122 35.04 6.86122 34.71 8.09122 34.6C9.40122 34.48 10.6812 34.58 11.9312 35.02C11.9812 35.04 12.0312 35.04 12.1012 35.05C12.1012 34.99 12.1012 34.95 12.0912 34.91C12.0312 34 11.9412 33.09 11.9112 32.18C11.8412 29.92 12.0012 27.68 12.2812 25.44C12.4612 24.03 12.6912 22.64 12.9712 21.25C13.0212 21 13.0712 20.76 13.1212 20.5C13.0412 20.5 12.9812 20.49 12.9112 20.49C12.5312 20.47 12.1512 20.46 11.7812 20.44C10.3312 20.36 8.91122 20.08 7.54122 19.57C6.34122 19.12 5.20122 18.57 4.17122 17.78C2.62122 16.6 1.53122 15.1 0.991218 13.21C0.601218 11.85 0.551218 10.48 0.781218 9.09C1.04122 7.56 1.62122 6.16 2.58122 4.93C3.83122 3.32 5.36122 2.07 7.17122 1.14C8.26122 0.58 9.41122 0.18 10.6412 0.03C10.8512 0.05 11.0112 0.02 11.1712 0ZM33.6612 15.93C33.5212 15.98 33.4312 16.01 33.3412 16.04C31.2412 16.8 29.1212 17.5 26.9812 18.13C26.7912 18.19 26.6812 18.28 26.6112 18.47C25.8612 20.37 25.2012 22.31 24.6512 24.28C23.8612 27.14 23.2812 30.03 23.1812 33.01C23.1412 34.22 23.2112 35.43 23.4412 36.63C23.6112 37.51 23.9312 38.33 24.3912 39.08C24.8812 39.87 25.5212 40.53 26.3312 41.02C27.4912 41.73 28.7612 41.99 30.1012 41.96C31.1712 41.94 32.2112 41.72 33.2212 41.37C33.2812 41.35 33.3312 41.32 33.4012 41.29C33.3612 41.21 33.3212 41.14 33.2812 41.07C33.0112 40.54 32.7212 40.01 32.4712 39.47C31.3312 36.94 30.8312 34.26 30.7312 31.5C30.6812 30.12 30.7312 28.75 30.8612 27.37C30.9812 26.12 31.1612 24.89 31.4112 23.66C31.8712 21.36 32.5212 19.11 33.3212 16.9C33.4312 16.6 33.5412 16.3 33.6712 15.95L33.6612 15.93Z" fill="#FF90F3"/>
</g>
<defs>
<clipPath id="clip0_751_80">
<rect width="61.69" height="50" fill="white" transform="translate(0.5)"/>
</clipPath>
</defs>
</svg>
