<svg width="82" height="50" viewBox="0 0 82 50" fill="none" xmlns="http://www.w3.org/2000/svg">
<g clip-path="url(#clip0_751_83)">
<path d="M79.2996 2.47013C75.0896 -1.73987 66.9596 -0.419872 61.1296 5.41013C57.4696 9.07013 55.5896 13.6501 55.7396 17.5901C59.2596 17.4001 62.5596 18.0901 64.9396 19.5401C65.1396 19.6601 65.1996 19.9201 65.0796 20.1101C64.9596 20.3101 64.7096 20.3601 64.5096 20.2501C62.0696 18.8401 58.8396 18.0701 54.6796 18.5101C50.5896 18.9501 46.5196 20.6001 43.2196 23.1401C43.1396 23.2001 43.0496 23.2301 42.9696 23.2301C42.8496 23.2301 42.7196 23.1701 42.6396 23.0701C42.4996 22.8901 42.5296 22.6301 42.7196 22.4901C45.1396 20.6201 47.9696 19.2201 50.9196 18.4001C55.0396 12.8701 55.5996 6.17013 51.9096 2.48013C47.6996 -1.72987 39.5696 -0.409872 33.7396 5.42013C29.9196 9.24013 28.3096 14.0501 28.8296 18.0901C30.6396 18.4001 32.2796 18.9801 33.6296 19.8001C33.8296 19.9201 33.8896 20.1801 33.7696 20.3701C33.6496 20.5701 33.3996 20.6201 33.1996 20.5101C31.3296 19.4501 29.3096 18.9801 27.5796 18.7901C26.0596 18.6501 24.4296 18.6701 22.7396 18.8501C22.7396 18.8501 22.7396 18.8401 22.7496 18.8301C18.8596 19.2901 15.0396 20.9801 11.8996 23.4001C11.8196 23.4601 11.7296 23.4901 11.6496 23.4901C11.5296 23.4901 11.3996 23.4301 11.3196 23.3301C11.1796 23.1501 11.2096 22.8901 11.3996 22.7501C14.8196 20.1201 19.0396 18.4101 23.2796 17.9501C23.3296 17.9501 23.3796 17.9501 23.4296 17.9301C27.2396 12.5001 27.6696 6.06013 24.0796 2.47013C19.8596 -1.73987 11.7296 -0.429872 5.89964 5.40013C0.0696425 11.2301 -1.24036 19.3601 2.95964 23.5701C3.89964 24.5101 5.02964 25.1701 6.28964 25.5701C0.649642 31.1101 -1.11036 39.9801 2.07964 45.0501C6.02964 51.3501 16.9396 51.6201 26.4496 45.6501C26.7196 45.4801 26.9796 45.3101 27.2296 45.1401C30.1896 42.9601 32.5996 40.3601 34.2796 37.5101C34.3996 37.3101 34.6496 37.2501 34.8496 37.3601C35.0496 37.4801 35.1096 37.7301 34.9996 37.9301C34.4796 38.8201 33.8896 39.6801 33.2296 40.5101C33.4396 41.9301 33.9196 43.2701 34.6796 44.4901C38.8496 51.1401 51.1896 52.1201 61.1296 45.4701C70.3496 39.3001 73.2196 30.3601 70.6096 24.6501C71.4196 24.2901 72.2096 23.8501 72.9996 23.3501C74.1696 22.6001 75.3096 21.6901 76.3596 20.6301C82.1896 14.8001 83.4996 6.67013 79.2996 2.46013V2.47013ZM20.8596 34.4401C18.0896 36.5201 15.3996 37.6101 14.8396 36.8601C14.2796 36.1101 16.0696 33.8301 18.8396 31.7501C21.6096 29.6701 24.2996 28.5801 24.8596 29.3301C25.4196 30.0701 23.6296 32.3601 20.8596 34.4401ZM54.0296 33.8001C51.2596 35.8801 48.5696 36.9701 48.0096 36.2201C47.4496 35.4801 49.2396 33.1901 52.0096 31.1101C54.7796 29.0301 57.4696 27.9401 58.0296 28.6901C58.5896 29.4301 56.7996 31.7201 54.0296 33.8001Z" fill="#FF90F3"/>
</g>
<defs>
<clipPath id="clip0_751_83">
<rect width="81.26" height="50" fill="white" transform="translate(0.5)"/>
</clipPath>
</defs>
</svg>
