<svg width="46" height="50" viewBox="0 0 46 50" fill="none" xmlns="http://www.w3.org/2000/svg">
<g clip-path="url(#clip0_751_86)">
<path d="M1.51016 7.68988C1.51016 7.68988 40.3502 -4.38012 36.6602 19.0999C35.9002 23.9399 33.4502 31.0699 38.3802 31.0699C43.3102 31.0699 45.6102 23.4299 45.6102 14.1499C45.6102 4.86988 34.5402 -0.940123 24.8502 0.119877C15.1702 1.18988 0.910156 6.08988 0.910156 6.08988L1.51016 7.67988V7.68988Z" fill="#FF90F3"/>
<path d="M5.38 19.51C4.29 19.46 3.25 19.62 2.28 20.29C1.21 21.05 0.5 22.28 0.5 23.61C0.5 24.83 1.1 25.98 2.04 26.74C3.86 28.2 6.32 27.67 8.47 27.48L15.02 26.9L22.93 26.2L30.04 25.57L34.57 25.17V23.64C34.57 23.64 32.97 23.41 32.18 23.3C30.21 23.02 28.24 22.74 26.27 22.45L18.76 21.37L11.55 20.34L6.55 19.62C6.15 19.56 5.77 19.52 5.38 19.5V19.51Z" fill="#FF90F3"/>
<path d="M2.5607 28.7998L4.2807 29.1698C4.2807 29.1698 3.5507 32.2498 3.4407 33.6198C3.3007 35.3098 3.4407 37.1298 4.2607 38.6898C5.8507 41.7098 10.8307 42.1298 13.7907 42.4298C21.4307 43.1998 28.1607 40.7298 35.2107 37.9598C37.2307 37.1698 40.9607 36.4698 42.4007 38.7998C43.7107 40.9298 42.2507 43.0698 40.6807 44.5098C38.6307 46.3898 36.1007 47.3798 33.3507 48.3498C31.4707 49.0098 29.4607 49.4898 27.4707 49.6898C22.2107 50.2398 16.4007 50.1998 11.3307 48.7098C9.5307 48.1798 6.8607 47.2698 5.1807 45.8598C3.03069 44.0498 1.3007 41.1998 0.950695 38.4298C0.790695 37.1798 0.950695 35.2198 1.2107 33.9898C1.4007 33.0698 2.5407 28.8198 2.5407 28.8198L2.5607 28.7998Z" fill="#FF90F3"/>
</g>
<defs>
<clipPath id="clip0_751_86">
<rect width="45.11" height="50" fill="white" transform="translate(0.5)"/>
</clipPath>
</defs>
</svg>
