<svg width="55" height="50" viewBox="0 0 55 50" fill="none" xmlns="http://www.w3.org/2000/svg">
<g clip-path="url(#clip0_751_91)">
<path d="M51.4897 30.3699C48.5297 27.1899 45.5197 26.8399 43.4297 27.1499C42.7197 24.2199 41.0697 21.6999 38.6297 19.7999C37.5897 18.9899 36.5897 18.4499 35.8597 18.0999C36.6797 16.9199 37.2797 15.6199 37.6297 14.2699C38.0997 12.4499 38.0997 10.5399 37.6397 8.72995C36.0297 2.43995 29.2797 -1.29005 22.5797 0.409949C15.8797 2.10995 11.7297 8.60995 13.3297 14.8999C13.8897 17.1199 15.0297 18.9899 16.6397 20.3599C15.4597 21.1399 14.1097 21.8799 12.6897 22.6499C9.95974 24.1399 7.13974 25.6799 4.85974 27.8399C2.17974 30.3699 0.769742 33.29 0.529742 36.77C0.249742 40.96 1.95974 44.87 5.10974 47.22C6.74974 48.44 8.73974 49.2099 10.8797 49.4399C11.3597 49.4899 11.8497 49.52 12.3497 49.52C14.2097 49.52 16.1497 49.15 18.1297 48.41C21.3097 47.23 24.1197 44.4199 25.8597 40.6899C25.8597 40.6899 25.8597 40.69 25.8597 40.68C26.4297 42.54 27.4897 44.29 29.0097 45.79C31.7797 48.51 35.6197 50 39.5997 50C40.8297 50 42.0797 49.86 43.2997 49.57C48.5797 48.31 52.2197 45.23 53.5297 40.9C54.6697 37.15 53.8397 32.9199 51.4697 30.3699H51.4897ZM51.7697 40.36C51.2597 42.06 50.3097 43.5399 48.9697 44.7599C47.4197 46.1599 45.3697 47.18 42.8897 47.77C38.3097 48.86 33.4897 47.5999 30.3197 44.4799C27.9597 42.16 26.8997 39.15 27.3297 36.13C27.3597 35.95 27.3897 35.77 27.4197 35.59C27.4297 35.53 27.4397 35.4799 27.4497 35.4199C27.4697 35.3499 27.4697 35.2799 27.4697 35.2099C27.7697 33.0399 27.6797 30.8499 27.1997 28.7499C27.0897 28.2499 26.5897 27.9399 26.0897 28.0599C25.5897 28.1699 25.2797 28.6699 25.3997 29.1699C26.1897 32.6299 25.7497 36.54 24.1797 39.91C22.6497 43.2 20.2097 45.66 17.4797 46.68C11.6697 48.84 7.92974 47.02 6.20974 45.74C3.55974 43.77 2.12974 40.46 2.36974 36.9C2.56974 33.91 3.79974 31.3899 6.11974 29.1999C8.22974 27.2099 10.9497 25.7199 13.5697 24.2899C15.2597 23.3699 16.8697 22.4899 18.2597 21.5099C19.8797 22.4199 21.7497 22.8899 23.7397 22.8899C23.8897 22.8899 24.0497 22.8899 24.1997 22.8899C24.7097 22.8699 25.1097 22.4399 25.0897 21.9299C25.0697 21.4199 24.6397 21.0199 24.1297 21.0399C22.0597 21.1199 20.1297 20.5899 18.5597 19.5399C16.8597 18.3899 15.6697 16.6399 15.1197 14.4699C13.7697 9.16995 17.3197 3.67995 23.0297 2.22995C28.7397 0.779949 34.4797 3.90995 35.8197 9.21995C36.5897 12.2599 35.7997 15.4299 33.6597 17.9299C33.3297 18.3199 33.3697 18.8999 33.7597 19.2399C33.8597 19.3199 33.9697 19.3799 34.0897 19.4199C34.1097 19.4199 35.7597 19.9499 37.5297 21.3399C39.6497 22.9999 41.0197 25.1099 41.6197 27.6499C40.2597 28.1499 39.4097 28.8299 39.3597 28.8599C38.9597 29.1799 38.8997 29.7599 39.2097 30.1599C39.5297 30.5599 40.1097 30.6299 40.5097 30.3099C40.5197 30.3099 41.4797 29.5599 42.9297 29.1699C43.1297 29.1199 43.3397 29.0699 43.5597 29.0299C45.9097 28.6399 48.1097 29.5199 50.0997 31.6599C51.9997 33.7099 52.6797 37.2999 51.7397 40.3899L51.7697 40.36Z" fill="#FF90F3"/>
</g>
<defs>
<clipPath id="clip0_751_91">
<rect width="53.55" height="50" fill="white" transform="translate(0.5)"/>
</clipPath>
</defs>
</svg>
