<svg width="67" height="50" viewBox="0 0 67 50" fill="none" xmlns="http://www.w3.org/2000/svg">
<g clip-path="url(#clip0_751_94)">
<path d="M8.19113 42.8802C8.19113 42.8802 15.4611 34.0502 20.5411 18.2502C20.6411 17.9502 20.8611 17.7502 21.2911 17.5802C21.2911 17.5802 27.3111 17.5002 29.8911 11.5902C29.8911 11.5902 31.1211 8.7702 29.0911 7.2202C29.0911 7.2202 28.9211 6.6102 29.4611 6.2202C29.4611 6.2202 30.8911 5.3502 33.9111 9.5102C33.9111 9.5102 34.7111 11.0602 34.3711 12.8802C34.3711 12.8802 29.1611 31.0602 17.2111 43.1602C17.2111 43.1602 9.96113 49.8602 0.641127 48.5802C0.641127 48.5802 0.371127 48.0702 0.611127 47.5802C0.611127 47.5802 5.01113 47.1202 8.20113 42.8602L8.19113 42.8802Z" fill="#FF90F3"/>
<path d="M30.2293 42.8902C30.2293 42.8902 37.8193 32.3602 42.4093 14.0902C42.4993 13.7402 42.7293 13.5002 43.2093 13.2802C43.2093 13.2802 50.1293 11.8002 52.5393 5.10022C52.5393 5.10022 53.6293 1.93022 51.2593 1.03022C51.2593 1.03022 50.9393 0.530218 51.6193 0.0702182C51.6193 0.0702182 54.1193 -0.799782 57.0293 3.27022C57.0293 3.27022 58.0093 5.21022 57.4093 8.05022C57.4093 8.05022 53.0993 27.9602 40.4493 42.5502C40.4493 42.5502 32.4093 51.1902 21.7593 49.8502C21.7593 49.8502 21.5293 49.2102 21.9693 48.7802C21.9693 48.7802 27.1193 48.0502 30.2193 42.8802L30.2293 42.8902Z" fill="#FF90F3"/>
<path d="M26.2105 32.5703C26.2105 32.5703 27.7905 33.7003 27.0905 36.4803C27.0905 36.4803 26.9305 37.3103 27.6405 38.1703C27.6405 38.1703 29.0905 39.3103 30.3905 39.6603C30.3905 39.6603 33.1705 40.1103 34.7105 38.2803C34.7105 38.2803 37.4405 35.2403 33.4405 31.7503C33.4405 31.7503 31.9005 30.8003 29.7805 30.8903C29.7805 30.8903 25.6405 31.2803 26.2005 32.5703H26.2105Z" fill="#FF90F3"/>
<path d="M49.9098 33.9702C49.9098 33.9702 52.9998 35.0702 52.3898 38.7602C52.3898 38.7602 52.1298 39.4802 52.7598 40.4402C52.7598 40.4402 54.2298 42.8502 56.3898 44.5502C56.3898 44.5502 61.7398 49.2102 65.5398 45.9302C65.5398 45.9302 69.2998 41.5202 61.8098 35.4402C61.8098 35.4402 58.8598 33.0502 53.5998 32.2902C53.5998 32.2902 49.1198 31.6702 49.9098 33.9702Z" fill="#FF90F3"/>
</g>
<defs>
<clipPath id="clip0_751_94">
<rect width="65.98" height="50" fill="white" transform="translate(0.5)"/>
</clipPath>
</defs>
</svg>
