<svg width="56" height="50" viewBox="0 0 56 50" fill="none" xmlns="http://www.w3.org/2000/svg">
<g clip-path="url(#clip0_751_100)">
<path d="M54.2994 40.1C53.1794 38.98 51.3594 38.98 50.2394 40.1L49.8994 40.44L49.1894 39.73C48.5594 39.1 47.5294 39.1 46.8994 39.73C46.3994 40.23 46.2994 40.96 46.5794 41.56L44.8094 39.84C44.1794 39.23 43.0594 39.14 42.2994 39.65C41.6194 40.1 41.4694 40.87 41.8894 41.47L40.2094 39.84C39.5794 39.23 38.4594 39.14 37.6994 39.65C36.9494 40.15 36.8394 41.03 37.4294 41.64L35.5694 39.83C34.9394 39.22 33.8194 39.13 33.0594 39.64C32.5094 40.01 32.2994 40.59 32.4694 41.11L31.0794 39.76C30.4494 39.15 29.3294 39.06 28.5694 39.57C27.8394 40.06 27.7194 40.93 28.2794 41.54L26.4794 39.79C25.8494 39.18 24.7294 39.09 23.9694 39.6C23.3494 40.01 23.1694 40.69 23.4594 41.26L21.9794 39.82C21.3494 39.21 20.2294 39.12 19.4694 39.63C18.7894 40.08 18.6394 40.85 19.0594 41.45L17.3794 39.82C16.7494 39.21 15.6294 39.12 14.8694 39.63C14.1194 40.13 14.0094 41.01 14.5994 41.62L12.7394 39.81C12.7394 39.81 12.7094 39.78 12.6894 39.77V30.19C13.4194 30.51 14.3494 30.38 14.8994 29.84L16.6994 28.09C16.1394 28.7 16.2594 29.56 16.9894 30.06C17.7494 30.57 18.8694 30.48 19.4994 29.87L20.8894 28.52C20.7194 29.04 20.9294 29.62 21.4794 29.99C22.2394 30.5 23.3594 30.41 23.9894 29.8L25.8494 27.99C25.2594 28.6 25.3694 29.48 26.1194 29.98C26.8794 30.49 27.9994 30.4 28.6294 29.79L30.3094 28.16C29.8894 28.75 30.0494 29.52 30.7194 29.98C31.4794 30.49 32.5994 30.4 33.2294 29.79L35.5794 27.5C35.1294 28.13 35.1894 29.01 35.7594 29.58C36.3894 30.21 37.4194 30.21 38.0494 29.58L38.7194 28.91L38.9794 29.17C40.0994 30.29 41.9194 30.29 43.0394 29.17C44.1594 28.05 44.1594 26.23 43.0394 25.11L42.7794 24.85L43.1094 24.52C43.7394 23.89 43.7394 22.86 43.1094 22.23C42.6294 21.75 41.9394 21.64 41.3494 21.87C41.8494 21.27 41.7094 20.44 40.9994 19.97C40.2394 19.46 39.1194 19.55 38.4894 20.16L37.7394 20.89C37.7394 20.89 36.4494 20.01 36.3994 19.98C35.6394 19.47 34.5194 19.56 33.8894 20.17L33.1294 20.91C33.1294 20.91 31.8194 20.02 31.7694 19.98C31.0094 19.47 29.8894 19.56 29.2594 20.17L28.5294 20.88C28.5294 20.88 27.3394 20.07 27.2894 20.04C26.5294 19.53 25.4094 19.62 24.7794 20.23L24.0594 20.93C24.0594 20.93 22.6994 20.02 22.6894 20.01C22.6894 20.01 22.6794 20.01 22.6694 20L22.5794 19.94C21.8294 19.52 20.7794 19.62 20.1894 20.2L19.0294 21.33C18.8894 21.05 18.6994 20.79 18.4594 20.56C17.2394 19.34 15.2694 19.34 14.0594 20.56L12.7194 21.9V9.48002L12.8294 9.41002L13.5494 10.11C14.1794 10.72 15.2994 10.81 16.0594 10.3C16.1094 10.27 17.2994 9.46002 17.2994 9.46002L18.0294 10.17C18.6594 10.78 19.7794 10.87 20.5394 10.36C20.5894 10.32 21.8994 9.43002 21.8994 9.43002L22.6594 10.17C23.2894 10.78 24.4094 10.87 25.1694 10.36C25.2194 10.32 26.5094 9.45002 26.5094 9.45002L27.2594 10.18C27.8894 10.79 29.0094 10.88 29.7694 10.37C29.8194 10.33 31.0694 9.48002 31.0694 9.48002L31.7494 10.15C32.3494 10.73 33.3894 10.83 34.1394 10.41L35.6194 9.42002L36.3394 10.12C36.9694 10.73 38.0894 10.82 38.8494 10.31C38.8994 10.28 40.0894 9.47002 40.0894 9.47002L40.8194 10.18C41.4494 10.79 42.5694 10.88 43.3294 10.37C43.3794 10.33 44.6894 9.44002 44.6894 9.44002L45.4494 10.18C46.0794 10.79 47.1994 10.88 47.9594 10.37C48.0094 10.33 49.2994 9.46002 49.2994 9.46002L50.0494 10.19C50.6794 10.8 51.7994 10.89 52.5594 10.38C53.3194 9.87002 53.4194 8.96002 52.7994 8.35002L52.6094 8.17002C53.2194 8.47002 53.9694 8.37002 54.4794 7.86002C55.1094 7.23002 55.1094 6.20002 54.4794 5.57002L54.0694 5.16002L54.2894 4.94002C55.4094 3.82002 55.4094 2.00002 54.2894 0.88002C53.1694 -0.23998 51.3494 -0.23998 50.2294 0.88002L50.0094 1.10002L49.4294 0.52002C48.7994 -0.10998 47.7694 -0.10998 47.1394 0.52002C46.5094 1.15002 46.5094 2.18002 47.1394 2.81002L44.7994 0.56002C44.1694 -0.0499803 43.0494 -0.13998 42.2894 0.37002C41.6094 0.82002 41.4594 1.59002 41.8794 2.19002L40.1994 0.56002C39.5694 -0.0499803 38.4494 -0.13998 37.6894 0.37002C36.9394 0.87002 36.8294 1.75002 37.4194 2.36002L35.5594 0.55002C34.9294 -0.0599803 33.8094 -0.14998 33.0494 0.36002C32.4994 0.73002 32.2894 1.31002 32.4594 1.83002L31.0694 0.48002C30.4394 -0.12998 29.3194 -0.21998 28.5594 0.29002C27.8294 0.78002 27.7094 1.65002 28.2694 2.26002L26.4694 0.51002C25.8394 -0.0999804 24.7194 -0.18998 23.9594 0.32002C23.3394 0.73002 23.1594 1.41002 23.4494 1.98002L21.9694 0.54002C21.3394 -0.0699803 20.2194 -0.15998 19.4594 0.35002C18.7794 0.80002 18.6294 1.57002 19.0494 2.17002L17.3694 0.54002C16.7394 -0.0699803 15.6194 -0.15998 14.8594 0.35002C14.1094 0.85002 13.9994 1.73002 14.5894 2.34002L12.7294 0.53002C12.0994 -0.0799804 10.9794 -0.16998 10.2194 0.34002C9.66938 0.71002 9.45938 1.29002 9.62938 1.81002L8.23937 0.46002C7.60937 -0.14998 6.48937 -0.23998 5.72937 0.27002C4.99937 0.76002 4.87937 1.63002 5.43937 2.24002L3.63938 0.49002C3.02938 -0.0599803 1.89938 -0.13998 1.14938 0.36002C0.399375 0.86002 0.279375 1.78002 0.909375 2.39002L2.14937 3.60002C1.87937 3.74002 1.62938 3.92002 1.40938 4.15002C0.189375 5.37002 0.189375 7.34002 1.40938 8.55002L1.94938 9.09002C2.48938 9.63002 3.17938 9.93002 3.87938 9.99002V40.03L3.64938 39.81C3.01938 39.2 1.89938 39.11 1.13938 39.62C0.379375 40.13 0.279375 41.04 0.899375 41.65L2.13937 42.86C1.86937 43 1.61938 43.18 1.39938 43.41C0.179375 44.63 0.179375 46.6 1.39938 47.81L1.93938 48.35C3.15938 49.57 5.12937 49.57 6.33938 48.35C6.58938 48.1 6.78937 47.82 6.92937 47.52L8.89937 49.44C9.49937 50.02 10.5394 50.12 11.2894 49.7L12.7694 48.71L13.4894 49.41C14.1194 50.02 15.2394 50.11 15.9994 49.6L17.2394 48.76L17.9694 49.47C18.5994 50.08 19.7194 50.17 20.4794 49.66C20.5294 49.62 21.8394 48.73 21.8394 48.73L22.5994 49.47C23.2294 50.08 24.3494 50.17 25.1094 49.66C25.1594 49.62 26.4494 48.75 26.4494 48.75L27.1994 49.48C27.8094 50.07 28.8894 50.17 29.6394 49.71C29.6594 49.7 31.0194 48.79 31.0194 48.79L31.6994 49.45C32.2994 50.03 33.3394 50.13 34.0894 49.71L35.5694 48.72L36.2894 49.42C36.9194 50.03 38.0394 50.12 38.7994 49.61L40.0394 48.77L40.7694 49.48C41.3994 50.09 42.5194 50.18 43.2794 49.67C43.3294 49.63 44.6394 48.74 44.6394 48.74L45.3994 49.48C46.0294 50.09 47.1494 50.18 47.9094 49.67C47.9594 49.63 49.2494 48.76 49.2494 48.76L49.9994 49.49C50.6294 50.1 51.7494 50.19 52.5094 49.68C53.2694 49.17 53.3694 48.26 52.7494 47.65L52.6094 47.52C53.1494 47.66 53.7494 47.52 54.1794 47.1C54.8094 46.47 54.8094 45.44 54.1794 44.81L53.8894 44.52L54.2294 44.18C55.3494 43.06 55.3494 41.24 54.2294 40.12L54.2994 40.1ZM12.7194 27.49L12.6894 27.52V27.48C12.6894 27.48 12.7094 27.49 12.7194 27.5V27.49Z" fill="#FF90F3"/>
</g>
<defs>
<clipPath id="clip0_751_100">
<rect width="54.64" height="50" fill="white" transform="translate(0.5)"/>
</clipPath>
</defs>
</svg>
