<svg width="53" height="50" viewBox="0 0 53 50" fill="none" xmlns="http://www.w3.org/2000/svg">
<g clip-path="url(#clip0_751_111)">
<path d="M13.8407 0.760069C17.5407 -0.279931 21.6307 0.630069 21.9907 0.760069C22.8207 1.06007 24.5607 2.32007 26.1507 4.35007C27.7407 6.38007 28.0107 5.73007 28.1607 10.5301C28.3107 15.3301 22.7207 21.7701 20.5207 20.7601C18.3207 19.7501 17.3307 20.2701 18.3007 22.9801C19.2707 25.6901 16.0807 32.6101 16.0807 32.6101C16.0807 34.0501 18.2207 34.7701 19.2607 33.7301C20.3007 32.6901 24.7207 36.5401 25.3507 38.1301C25.9207 39.5801 25.3907 45.1001 25.3907 45.1001C25.3907 46.0901 24.7607 46.9701 23.8107 47.2601C22.3207 47.7201 21.3307 49.2801 19.0307 49.6501C15.8207 50.1701 10.2407 48.2301 7.92072 49.5001C5.60072 50.7701 3.48072 49.4801 1.99072 46.6801C0.500724 43.8801 0.740724 42.0901 0.500724 37.8001C0.260724 33.5101 5.15072 24.1001 6.43072 22.2401C7.71072 20.3801 6.43072 19.3401 3.47072 18.5401C0.510724 17.7401 0.920724 13.7401 2.73072 11.8701C4.54072 10.0001 10.1407 1.80007 13.8407 0.760069Z" fill="#FF90F3"/>
<path d="M37.6119 0.189885C40.3819 -0.480115 45.1019 0.839885 47.9819 0.759885C50.8619 0.679885 52.2819 2.61988 51.6819 4.34988C51.0819 6.07988 52.4719 10.6799 52.4719 13.5799C52.4719 16.4799 48.9119 21.7799 46.5019 20.7699C44.0919 19.7599 42.4819 22.2499 43.9819 24.3099C45.4819 26.3699 42.0519 32.6299 42.0519 32.6299C42.0519 34.0699 44.8519 34.0299 45.7519 33.3699C46.6519 32.7099 46.1419 32.1899 48.2219 32.1899C50.3019 32.1899 51.7619 36.6799 51.7719 38.1499L51.8119 45.1199C51.8119 46.1099 51.1819 46.9899 50.2419 47.2799C48.7519 47.7399 47.3019 49.2999 45.0019 49.6699C41.7919 50.1899 31.9519 49.5099 31.4819 49.3399C31.0119 49.1699 30.0319 49.2999 28.4219 46.7099C26.8119 44.1199 27.0019 42.5999 27.7219 41.3499C28.4419 40.0999 26.9219 30.3699 29.4619 26.8599C32.0019 23.3499 31.8019 21.4899 30.8619 20.3199C30.1419 19.4399 29.4519 18.5799 29.4519 18.5599C29.4519 18.5599 27.6419 15.7099 30.2419 11.3699C32.8419 7.02988 34.8419 0.869885 37.6119 0.189885Z" fill="#FF90F3"/>
</g>
<defs>
<clipPath id="clip0_751_111">
<rect width="51.98" height="50" fill="white" transform="translate(0.5)"/>
</clipPath>
</defs>
</svg>
