<svg width="72" height="40" viewBox="0 0 72 40" fill="none" xmlns="http://www.w3.org/2000/svg">
<g clip-path="url(#clip0_751_103)">
<path d="M35.1714 17.67C35.1714 17.67 36.5414 21.14 32.9214 23.37C32.9214 23.37 32.1114 23.69 31.7614 24.94C31.7614 24.94 30.7914 28 30.9514 31.12C30.9514 31.12 30.9614 39.19 36.6214 39.99C36.6214 39.99 43.2114 39.91 42.8214 28.95C42.8214 28.95 42.6614 24.64 39.3814 19.56C39.3814 19.56 36.5614 15.26 35.1814 17.66L35.1714 17.67Z" fill="#B9DCB7"/>
<path d="M21.2808 4.83979C21.2808 4.83979 31.8108 6.00979 62.5508 4.09979C62.5508 4.09979 69.1208 3.60979 70.0508 0.229791C70.0508 0.229791 70.5708 -0.180209 71.3208 0.0997911C71.3208 0.0997911 72.1308 1.26979 71.1308 3.33979C71.1308 3.33979 67.0408 11.5498 50.9408 14.4598C50.9408 14.4598 29.9408 18.2198 5.11083 14.4598C5.11083 14.4598 -0.819166 12.8198 0.770834 7.20979C0.770834 7.20979 1.66083 4.98979 2.99083 6.30979C2.99083 6.30979 1.79083 9.04979 5.83083 9.45979C5.83083 9.45979 12.8008 10.3498 19.9708 5.19979C19.9708 5.19979 20.4308 4.72979 21.2808 4.82979V4.83979Z" fill="#B9DCB7"/>
</g>
<defs>
<clipPath id="clip0_751_103">
<rect width="71.13" height="40" fill="white" transform="translate(0.5)"/>
</clipPath>
</defs>
</svg>
