<svg width="76" height="60" viewBox="0 0 76 60" fill="none" xmlns="http://www.w3.org/2000/svg">
<g clip-path="url(#clip0_751_107)">
<path d="M8.46037 44.0401C6.54037 44.1301 4.75037 44.5601 3.15037 45.8301C1.37037 47.2401 0.320367 49.3801 0.520367 51.5701C0.700367 53.5801 1.92037 55.3701 3.69037 56.4701C7.10037 58.5901 11.3404 57.3201 15.0704 56.6601C18.8004 56.0001 22.6704 55.3201 26.4704 54.6501L40.2204 52.2301C44.3404 51.5001 48.4604 50.7801 52.5804 50.0501C54.9904 49.6301 60.4504 48.6601 60.4504 48.6601L60.2204 46.1501L55.9704 45.9701C52.4804 45.8201 48.9904 45.6701 45.5004 45.5301C41.0604 45.3401 36.6204 45.1501 32.1804 44.9701C27.9204 44.7901 23.6604 44.6101 19.4004 44.4301C16.4404 44.3001 13.4904 44.1801 10.5304 44.0501C9.83037 44.0201 9.14037 44.0101 8.47037 44.0501L8.46037 44.0401Z" fill="#B9DCB7"/>
<path d="M62.2505 51.72C62.2505 53.64 62.6005 55.45 63.7905 57.1C65.1205 58.94 67.2105 60.09 69.4005 59.99C71.4205 59.9 73.2605 58.76 74.4405 57.04C76.7105 53.73 75.6305 49.44 75.1405 45.68L73.6505 34.2C73.0505 29.59 72.4505 24.97 71.8505 20.36C71.3105 16.21 70.7705 12.06 70.2305 7.90998L69.2005 -0.0200195L66.6805 0.0999805L66.3105 4.32998L65.3905 14.77C65.0005 19.2 64.6105 23.62 64.2305 28.05C63.8505 32.48 63.4905 36.55 63.1105 40.8L62.3305 49.64C62.2705 50.34 62.2305 51.03 62.2305 51.7L62.2505 51.72Z" fill="#B9DCB7"/>
</g>
<defs>
<clipPath id="clip0_751_107">
<rect width="75.34" height="60" fill="white" transform="translate(0.5)"/>
</clipPath>
</defs>
</svg>
