<svg width="79" height="70" viewBox="0 0 79 70" fill="none" xmlns="http://www.w3.org/2000/svg">
<g clip-path="url(#clip0_751_115)">
<path d="M77.43 32.61H68.77V1.29C68.77 0.58 68.19 0 67.48 0H55.18C54.47 0 53.89 0.58 53.89 1.29V57.12H34.89V38.51C34.89 37.96 34.44 37.51 33.89 37.51H21C20.45 37.51 20 37.96 20 38.51V57.12H1.3C0.86 57.12 0.5 57.48 0.5 57.92V59.75C0.5 60.19 0.86 60.55 1.3 60.55H20V62.9C20 63.45 20.45 63.9 21 63.9H33.89C34.44 63.9 34.89 63.45 34.89 62.9V60.55H53.89V68.7C53.89 69.41 54.47 69.99 55.18 69.99H67.48C68.19 69.99 68.77 69.41 68.77 68.7V36.03H77.43C77.76 36.03 78.03 35.76 78.03 35.43V33.21C78.03 32.88 77.76 32.61 77.43 32.61Z" fill="#B9DCB7"/>
</g>
<defs>
<clipPath id="clip0_751_115">
<rect width="77.54" height="70" fill="white" transform="translate(0.5)"/>
</clipPath>
</defs>
</svg>
