<svg width="71" height="70" viewBox="0 0 71 70" fill="none" xmlns="http://www.w3.org/2000/svg">
<g clip-path="url(#clip0_751_118)">
<path d="M70.1182 63.8799C69.8582 63.7899 69.6882 63.5099 69.7182 63.2199C70.6282 54.3699 67.3782 5.46994 67.3782 5.46994L55.5482 0.309941C55.3182 0.219941 55.0582 0.359941 54.9982 0.619941C54.9582 0.789941 54.8882 0.989941 54.7782 1.22994C54.6982 1.41994 54.6682 1.62994 54.6982 1.82994L54.8482 2.64994C55.8082 7.35994 56.0782 15.6799 55.9882 24.9099H51.7282C51.5882 14.3299 51.3782 5.80994 51.3782 5.80994L39.2682 0.0399409C39.0382 -0.0600591 38.7682 0.0699409 38.6982 0.319941C38.6482 0.479941 38.5782 0.689941 38.4582 0.919941C38.3682 1.09994 38.3282 1.30994 38.3582 1.50994L38.4682 2.33994C39.7482 10.3199 38.6282 28.4099 37.2682 43.8599C31.3582 42.8599 26.7382 43.0899 26.7382 43.0899C26.1182 42.5899 23.6382 39.3899 22.5882 38.0299C22.3482 37.7199 22.1382 37.3899 21.9682 37.0399C21.4382 35.9199 20.5682 36.2299 20.2282 36.4199C19.8682 36.6099 19.4982 36.7899 19.1182 36.9599C15.8682 38.3999 12.6282 39.2199 10.9182 39.9399C10.8682 39.9599 10.8282 39.9799 10.7782 39.9999C9.61824 40.5399 9.14824 41.9499 9.69824 43.0999C10.1582 44.0699 10.8082 45.2899 11.5282 46.5699C11.4782 46.5699 11.4182 46.5799 11.3682 46.5999C9.85824 47.0299 5.05824 48.4099 1.08824 49.8199C0.558238 50.0099 0.338238 50.6299 0.618238 51.1099C2.62824 54.4999 6.58824 58.4299 8.70824 60.4199C9.02824 60.7199 9.51824 60.7399 9.85824 60.4699C11.9782 58.8099 14.4582 57.2899 16.4682 56.1499L19.8982 54.3699C19.9182 54.3599 19.9382 54.3499 19.9582 54.3399C20.5882 54.0099 25.7982 51.4199 34.3782 51.5699C35.1782 51.6199 35.8882 51.6499 36.5282 51.6599C35.7482 59.6599 35.0182 66.0999 34.7182 68.6699C34.6482 69.2599 35.1482 69.7299 35.6882 69.5999C39.5582 68.6099 51.4082 65.3499 51.7382 65.0899C52.1382 64.7699 51.9282 64.4299 51.6182 64.3199C51.3582 64.2199 51.2082 63.9299 51.2482 63.6399C51.7482 60.2299 51.8782 50.8099 51.8482 40.5299H55.5582C55.0382 53.4899 54.1982 65.3599 53.9182 69.1099C53.8782 69.6999 54.3982 70.1499 54.9282 69.9899C58.7582 68.8099 69.9182 64.9499 70.2482 64.6699C70.6282 64.3399 70.4182 64.0099 70.0982 63.9099L70.1182 63.8799Z" fill="#B9DCB7"/>
</g>
<defs>
<clipPath id="clip0_751_118">
<rect width="69.98" height="70" fill="white" transform="translate(0.5)"/>
</clipPath>
</defs>
</svg>
