<svg width="64" height="70" viewBox="0 0 64 70" fill="none" xmlns="http://www.w3.org/2000/svg">
<g clip-path="url(#clip0_751_121)">
<path d="M41.7625 35.66C43.5298 35.66 44.9625 34.2273 44.9625 32.46C44.9625 30.6927 43.5298 29.26 41.7625 29.26C39.9952 29.26 38.5625 30.6927 38.5625 32.46C38.5625 34.2273 39.9952 35.66 41.7625 35.66Z" fill="#B9DCB7"/>
<path d="M44.282 70.0001C46.0493 70.0001 47.482 68.5674 47.482 66.8001C47.482 65.0328 46.0493 63.6001 44.282 63.6001C42.5147 63.6001 41.082 65.0328 41.082 66.8001C41.082 68.5674 42.5147 70.0001 44.282 70.0001Z" fill="#B9DCB7"/>
<path d="M55.2898 70.0001C57.0572 70.0001 58.4898 68.5674 58.4898 66.8001C58.4898 65.0328 57.0572 63.6001 55.2898 63.6001C53.5225 63.6001 52.0898 65.0328 52.0898 66.8001C52.0898 68.5674 53.5225 70.0001 55.2898 70.0001Z" fill="#B9DCB7"/>
<path d="M16.5789 70.0001C18.3462 70.0001 19.7789 68.5674 19.7789 66.8001C19.7789 65.0328 18.3462 63.6001 16.5789 63.6001C14.8116 63.6001 13.3789 65.0328 13.3789 66.8001C13.3789 68.5674 14.8116 70.0001 16.5789 70.0001Z" fill="#B9DCB7"/>
<path d="M0.570702 38.22L0.500702 39.98C0.480702 40.51 0.890702 40.95 1.4207 40.97C2.5407 41 4.3207 41.05 6.5407 41.05C7.0307 41.05 7.5507 41.05 8.0907 41.05C8.6307 41.05 9.0307 40.62 9.0307 40.1V38.34C9.0307 37.81 8.6007 37.38 8.0707 37.39C5.7807 37.41 3.5807 37.39 1.5507 37.32C1.0307 37.3 0.590702 37.71 0.570702 38.23V38.22Z" fill="#B9DCB7"/>
<path d="M22.3389 41.55C22.3389 42.02 21.9889 42.41 21.5189 42.47L19.4989 42.72C19.0589 42.77 18.6689 42.43 18.6689 41.99V41.42C18.6689 40.99 18.3089 40.65 17.8789 40.68C16.4089 40.78 14.9689 40.86 13.5889 40.91C13.0689 40.93 12.6289 40.51 12.6289 39.99V38.16C12.6289 37.66 13.0189 37.25 13.5189 37.23C16.0189 37.12 18.5389 36.95 20.9989 36.71C21.4989 36.66 21.9389 37.02 21.9989 37.51L22.1189 38.53C22.2589 39.51 22.3289 40.5 22.3289 41.49V41.54L22.3389 41.55Z" fill="#B9DCB7"/>
<path d="M21.2797 45.81L19.5197 46.06C19.0397 46.13 18.6797 46.6 18.6797 47.15V49.96C18.6797 50.57 19.1097 51.06 19.6297 51.06H21.3897C21.9197 51.06 22.3397 50.57 22.3397 49.96V46.9C22.3397 46.24 21.8397 45.73 21.2697 45.81H21.2797Z" fill="#B9DCB7"/>
<path d="M15.2002 65.79C14.9002 66.17 14.9402 66.72 15.2902 67.06L15.9702 67.72L16.5602 68.3C16.9602 68.69 17.6102 68.65 17.9702 68.21C18.5902 67.43 19.5402 66.1 20.4002 64.32C20.6502 63.81 20.4002 63.2 19.8602 63.01L18.1802 62.42C17.7302 62.26 17.2302 62.47 17.0102 62.9C16.3702 64.21 15.6702 65.2 15.2102 65.79H15.2002Z" fill="#B9DCB7"/>
<path d="M22.3415 56.14V55.23C22.3415 54.7 21.9115 54.28 21.3915 54.28H19.6315C19.1015 54.28 18.6815 54.71 18.6815 55.23V56.12C18.6815 56.74 18.6215 57.34 18.5515 57.92C18.4915 58.37 18.7515 58.8 19.1815 58.95L20.8815 59.54C21.4415 59.74 22.0415 59.37 22.1315 58.79C22.2615 57.95 22.3415 57.06 22.3515 56.14H22.3415Z" fill="#B9DCB7"/>
<path d="M51.7209 0H49.8709C49.3684 0 48.9609 0.407421 48.9609 0.91V4.16C48.9609 4.66258 49.3684 5.07 49.8709 5.07H51.7209C52.2235 5.07 52.6309 4.66258 52.6309 4.16V0.91C52.6309 0.407421 52.2235 0 51.7209 0Z" fill="#B9DCB7"/>
<path d="M51.7209 8.66992H49.8709C49.3684 8.66992 48.9609 9.07734 48.9609 9.57992V13.0099C48.9609 13.5125 49.3684 13.9199 49.8709 13.9199H51.7209C52.2235 13.9199 52.6309 13.5125 52.6309 13.0099V9.57992C52.6309 9.07734 52.2235 8.66992 51.7209 8.66992Z" fill="#B9DCB7"/>
<path d="M48.4992 58.9199L50.3892 59.5799C50.8392 59.7399 51.3292 59.4799 51.4592 59.0299C51.7592 57.9999 52.0092 56.8699 52.2092 55.6299C52.2892 55.1299 51.8992 54.6699 51.3892 54.6699H49.3592C48.9592 54.6699 48.6092 54.9599 48.5392 55.3599C48.3792 56.2899 48.1892 57.1399 47.9692 57.9199C47.8492 58.3399 48.0792 58.7799 48.4992 58.9199Z" fill="#B9DCB7"/>
<path d="M43.7305 65.29L45.8205 68.3C45.9705 68.19 48.0205 66.73 49.8305 63.2L46.3505 61.98C45.0905 64.27 43.8305 65.21 43.7305 65.28V65.29Z" fill="#B9DCB7"/>
<path d="M51.7209 35.96H49.8709C49.3684 35.96 48.9609 36.3674 48.9609 36.87V41.29C48.9609 41.7925 49.3684 42.2 49.8709 42.2H51.7209C52.2235 42.2 52.6309 41.7925 52.6309 41.29V36.87C52.6309 36.3674 52.2235 35.96 51.7209 35.96Z" fill="#B9DCB7"/>
<path d="M51.7209 26.1101H49.8709C49.3684 26.1101 48.9609 26.5175 48.9609 27.0201V31.4401C48.9609 31.9427 49.3684 32.3501 49.8709 32.3501H51.7209C52.2235 32.3501 52.6309 31.9427 52.6309 31.4401V27.0201C52.6309 26.5175 52.2235 26.1101 51.7209 26.1101Z" fill="#B9DCB7"/>
<path d="M51.7209 17.53H49.8709C49.3684 17.53 48.9609 17.9375 48.9609 18.44V21.59C48.9609 22.0926 49.3684 22.5 49.8709 22.5H51.7209C52.2235 22.5 52.6309 22.0926 52.6309 21.59V18.44C52.6309 17.9375 52.2235 17.53 51.7209 17.53Z" fill="#B9DCB7"/>
<path d="M62.2405 17.53H60.3905C59.8879 17.53 59.4805 17.9375 59.4805 18.44V21.59C59.4805 22.0926 59.8879 22.5 60.3905 22.5H62.2405C62.7431 22.5 63.1505 22.0926 63.1505 21.59V18.44C63.1505 17.9375 62.7431 17.53 62.2405 17.53Z" fill="#B9DCB7"/>
<path d="M59.4805 50.0401C59.4805 50.0401 59.4805 50.1101 59.4805 50.1501C59.4805 50.6501 59.8905 51.0601 60.3905 51.0601H62.2305C62.7305 51.0601 63.1405 50.6501 63.1405 50.1501C63.1405 50.1101 63.1405 50.0801 63.1405 50.0401V46.71C63.1405 46.21 62.7305 45.8 62.2305 45.8H60.3905C59.8905 45.8 59.4805 46.21 59.4805 46.71V50.0401Z" fill="#B9DCB7"/>
<path d="M62.2405 35.96H60.3905C59.8879 35.96 59.4805 36.3674 59.4805 36.87V41.29C59.4805 41.7925 59.8879 42.2 60.3905 42.2H62.2405C62.7431 42.2 63.1505 41.7925 63.1505 41.29V36.87C63.1505 36.3674 62.7431 35.96 62.2405 35.96Z" fill="#B9DCB7"/>
<path d="M62.2405 26.1101H60.3905C59.8879 26.1101 59.4805 26.5175 59.4805 27.0201V31.4401C59.4805 31.9427 59.8879 32.3501 60.3905 32.3501H62.2405C62.7431 32.3501 63.1505 31.9427 63.1505 31.4401V27.0201C63.1505 26.5175 62.7431 26.1101 62.2405 26.1101Z" fill="#B9DCB7"/>
<path d="M54.8117 64.8C54.4917 65.11 54.4517 65.61 54.7117 65.97L55.3017 66.8L55.7717 67.48C56.0917 67.94 56.7417 68.01 57.1517 67.62C57.8417 66.97 58.8717 65.82 59.8917 64.05C60.1817 63.56 59.9417 62.92 59.4017 62.73L57.6517 62.12C57.2417 61.98 56.7917 62.14 56.5717 62.51C55.9017 63.62 55.2617 64.35 54.8117 64.79V64.8Z" fill="#B9DCB7"/>
<path d="M59.1295 58.8299L60.8595 59.4399C61.3595 59.6099 61.8995 59.3299 62.0395 58.8299C62.2995 57.8799 62.5295 56.8499 62.7095 55.7399C62.7995 55.1799 62.3695 54.6799 61.8095 54.6799H59.9495C59.5095 54.6799 59.1295 54.9999 59.0495 55.4399C58.9095 56.2699 58.7395 57.0399 58.5495 57.7499C58.4295 58.2099 58.6795 58.6899 59.1295 58.8499V58.8299Z" fill="#B9DCB7"/>
<path d="M62.2405 8.66992H60.3905C59.8879 8.66992 59.4805 9.07734 59.4805 9.57992V13.0099C59.4805 13.5125 59.8879 13.9199 60.3905 13.9199H62.2405C62.7431 13.9199 63.1505 13.5125 63.1505 13.0099V9.57992C63.1505 9.07734 62.7431 8.66992 62.2405 8.66992Z" fill="#B9DCB7"/>
<path d="M62.2405 0H60.3905C59.8879 0 59.4805 0.407421 59.4805 0.91V4.16C59.4805 4.66258 59.8879 5.07 60.3905 5.07H62.2405C62.7431 5.07 63.1505 4.66258 63.1505 4.16V0.91C63.1505 0.407421 62.7431 0 62.2405 0Z" fill="#B9DCB7"/>
<path d="M25.5907 37.12L25.8007 38.88C25.8607 39.41 26.3607 39.79 26.8907 39.71C28.7507 39.42 30.5807 39.08 32.3007 38.66C32.7707 38.55 33.0807 38.1 33.0207 37.62L32.8107 35.88C32.7407 35.32 32.2007 34.94 31.6507 35.07C30.0207 35.45 28.2507 35.78 26.3907 36.06C25.8807 36.14 25.5207 36.6 25.5907 37.12Z" fill="#B9DCB7"/>
<path d="M43.3802 31.5299L41.8202 30.6799C41.4202 30.4599 40.9102 30.5599 40.6302 30.9099C39.8402 31.8799 38.5402 32.7099 36.8502 33.4399C36.4602 33.6099 36.2302 34.0099 36.2802 34.4299L36.4902 36.1799C36.5702 36.7999 37.2202 37.1799 37.8002 36.9399C40.3702 35.8899 42.4302 34.5799 43.6902 32.9399C44.0502 32.4799 43.9002 31.8099 43.3902 31.5299H43.3802Z" fill="#B9DCB7"/>
<path d="M50.3925 45.8H43.9825C43.4725 45.8 43.0625 46.2101 43.0625 46.7201V48.2901C43.0625 48.8001 43.4825 49.2201 43.9925 49.2201H48.1425C48.6025 49.2201 48.9725 49.59 48.9725 50.05C48.9725 50.05 48.9725 50.08 48.9725 50.1C48.9725 50.64 49.4025 51.07 49.9425 51.07H51.7425C52.2325 51.07 52.6425 50.67 52.6425 50.17C52.6425 50.13 52.6425 50.0901 52.6425 50.0401V46.7201C52.6425 46.2101 52.2325 45.8 51.7225 45.8H50.4025H50.3925Z" fill="#B9DCB7"/>
<path d="M38.5611 45.8H33.0111C32.5196 45.8 32.1211 46.1985 32.1211 46.69V48.32C32.1211 48.8116 32.5196 49.21 33.0111 49.21H38.5611C39.0526 49.21 39.4511 48.8116 39.4511 48.32V46.69C39.4511 46.1985 39.0526 45.8 38.5611 45.8Z" fill="#B9DCB7"/>
</g>
<defs>
<clipPath id="clip0_751_121">
<rect width="62.65" height="70" fill="white" transform="translate(0.5)"/>
</clipPath>
</defs>
</svg>
