<svg width="62" height="70" viewBox="0 0 62 70" fill="none" xmlns="http://www.w3.org/2000/svg">
<g clip-path="url(#clip0_751_155)">
<path d="M46.5 43.71C48.94 43.71 50.11 41.73 50.11 39.29C50.11 37.56 49.52 36.05 48.31 35.33C47.64 34.93 46.82 34.92 46.08 35.19C42.22 36.6 8.4 36.6 4.53 35.19C3.8 34.92 2.97 34.93 2.3 35.33C1.08 36.05 0.5 37.56 0.5 39.29C0.5 41.73 1.67 43.71 4.11 43.71C9.26 43.93 15.43 44.02 22.04 44.02V44.48C22.04 45.06 22.51 45.53 23.09 45.53H24.42C24.57 48.73 24.01 51.66 23.18 54.16C21.54 54.58 18.08 56.24 14.33 62.7C13.59 63.97 11.86 66.95 13.31 68.36C13.59 68.63 14 68.87 14.59 68.87C15.09 68.87 15.73 68.69 16.52 68.21C18.73 66.85 22.17 63.04 24.49 57.89C25.88 54.81 27.21 50.49 27.01 45.53H28.08C28.66 45.53 29.13 45.06 29.13 44.48V44C34.87 43.95 40.77 43.85 46.51 43.71H46.5ZM20.28 60.26C18.56 63 16.84 64.74 15.71 65.61C15.89 65.19 16.16 64.66 16.56 63.98C18.51 60.62 20.31 58.78 21.67 57.78C21.2 58.73 20.72 59.56 20.28 60.25V60.26Z" fill="#B9DCB7"/>
<path d="M60.8889 68.22V1.22C60.8889 0.54 60.3389 0 59.6689 0H53.8489C53.1689 0 52.6289 0.55 52.6289 1.22V46.95H51.7989C51.4989 46.95 51.2589 47.19 51.2589 47.49V49.55C38.8789 46.9 30.6689 51.19 30.3089 51.38C29.6089 51.75 29.3489 52.62 29.7189 53.32C29.9789 53.8 30.4789 54.08 30.9889 54.08C31.2189 54.08 31.4489 54.03 31.6589 53.91C31.6789 53.9 33.7689 52.81 37.3489 52.12C40.4589 51.52 45.3389 51.13 51.2589 52.49V54.33C51.2589 54.63 51.4989 54.87 51.7989 54.87H52.6289V68.22H51.5189V70H62.0089V68.22H60.8989H60.8889Z" fill="#B9DCB7"/>
</g>
<defs>
<clipPath id="clip0_751_155">
<rect width="61.5" height="70" fill="white" transform="translate(0.5)"/>
</clipPath>
</defs>
</svg>
