<svg width="59" height="70" viewBox="0 0 59 70" fill="none" xmlns="http://www.w3.org/2000/svg">
<g clip-path="url(#clip0_751_151)">
<path d="M46.91 38.99H0.91C0.68 38.99 0.5 39.17 0.5 39.4V47.29C0.5 47.52 0.68 47.7 0.91 47.7H19.35L21.57 46.12C21.89 45.89 22.34 45.97 22.56 46.29C22.79 46.61 22.71 47.06 22.39 47.28L17.77 50.56L1.35 62.92C1.17 63.06 1.13 63.31 1.27 63.5L6.01 69.8C6.15 69.98 6.4 70.02 6.59 69.88L28.68 53.27C28.9 53.1 29.03 52.85 29.03 52.57V48.21C29.03 47.92 29.26 47.69 29.55 47.69H46.92C47.17 47.69 47.37 47.49 47.37 47.24V39.43C47.37 39.18 47.17 38.98 46.92 38.98L46.91 38.99Z" fill="#B9DCB7"/>
<path d="M58.05 0H50.16C49.9336 0 49.75 0.183563 49.75 0.41V69.59C49.75 69.8164 49.9336 70 50.16 70H58.05C58.2764 70 58.46 69.8164 58.46 69.59V0.41C58.46 0.183563 58.2764 0 58.05 0Z" fill="#B9DCB7"/>
</g>
<defs>
<clipPath id="clip0_751_151">
<rect width="57.95" height="70" fill="white" transform="translate(0.5)"/>
</clipPath>
</defs>
</svg>
