<svg width="38" height="70" viewBox="0 0 38 70" fill="none" xmlns="http://www.w3.org/2000/svg">
<g clip-path="url(#clip0_751_159)">
<path d="M17.5418 27.18C17.5418 27.18 20.7018 25.93 22.7418 29.23C22.7418 29.23 23.0318 29.97 24.1818 30.29C24.1818 30.29 26.9818 31.17 29.8218 31.03C29.8218 31.03 37.1818 31.02 37.9218 25.86C37.9218 25.86 37.8518 19.85 27.8518 20.2C27.8518 20.2 23.9218 20.34 19.2818 23.34C19.2818 23.34 15.3618 25.92 17.5518 27.17L17.5418 27.18Z" fill="#B9DCB7"/>
<path d="M17.4796 45.9701C17.4796 45.9701 20.5096 44.7801 22.4596 47.9301C22.4596 47.9301 22.7396 48.6401 23.8296 48.9501C23.8296 48.9501 26.5096 49.7901 29.2296 49.6601C29.2296 49.6601 36.2796 49.6501 36.9796 44.7101C36.9796 44.7101 36.9096 38.9501 27.3396 39.2901C27.3396 39.2901 23.5796 39.4301 19.1296 42.3001C19.1296 42.3001 15.3696 44.7701 17.4696 45.9701H17.4796Z" fill="#B9DCB7"/>
<path d="M4.83123 20.5601C4.83123 20.5601 5.63123 35.7901 3.89123 63.8401C3.89123 63.8401 3.75123 68.0701 0.771235 68.4301C0.771235 68.4301 0.251235 69.0301 0.651235 69.9501C0.651235 69.9501 1.72123 70.1901 2.89123 69.5601C2.89123 69.5601 11.8612 63.0601 14.5112 48.3701C14.5112 48.3701 17.9412 26.8601 14.5112 4.20007C14.5112 4.20007 13.0112 -1.20993 7.90123 0.240069C7.90123 0.240069 5.87123 1.05007 7.08123 2.26007C7.08123 2.26007 9.58124 1.17007 9.96124 4.85007C9.96124 4.85007 11.3012 11.3301 5.17123 19.3501C5.17123 19.3501 4.74123 19.7701 4.83123 20.5401V20.5601Z" fill="#B9DCB7"/>
</g>
<defs>
<clipPath id="clip0_751_159">
<rect width="37.41" height="70" fill="white" transform="translate(0.5)"/>
</clipPath>
</defs>
</svg>
