<svg width="61" height="70" viewBox="0 0 61 70" fill="none" xmlns="http://www.w3.org/2000/svg">
<g clip-path="url(#clip0_751_167)">
<path d="M60.6513 50.7801C60.5113 45.1801 56.3413 37.6801 56.3413 32.2901C56.2913 27.2401 58.3613 20.8201 58.5113 15.2001C58.5713 12.6901 59.4413 5.94007 58.5113 3.77007C56.3613 -1.23993 52.4313 0.190071 47.8013 0.190071C43.1813 0.190071 36.7513 3.43007 36.9213 8.05007C37.0013 10.3201 39.7213 15.6201 39.7813 18.0501C39.9213 23.6701 44.8513 23.8401 44.8013 29.0801C44.8013 34.7301 42.2013 48.7601 42.0813 54.3501C42.0313 56.6301 40.2813 59.4901 40.2113 61.5701C40.0613 66.1801 43.1913 70.0001 47.8113 70.0001H47.8513C52.4713 70.0001 58.6813 69.6901 58.5213 65.0701C58.4013 61.7401 60.7413 53.8001 60.6613 50.7801H60.6513Z" fill="#B9DCB7"/>
<path d="M38.56 49.55C38.42 43.95 34.25 42.73 34.25 37.34C34.2 32.29 36.71 25.9 36.85 20.28C36.91 17.77 34.8 12.68 33.87 10.5C31.73 5.49999 30.33 5.23999 25.7 5.23999C21.08 5.23999 14.09 8.47999 14.25 13.1C14.33 15.37 17.05 20.67 17.11 23.1C17.2 26.53 19.27 27.92 20.86 29.68C18.76 29.33 16.44 28.32 14 26.84C12.27 25.79 9.75 21.23 6.82 22.35C5.89 22.7 3.37 21.95 2.43 24.07C0.819998 27.71 0.949998 38.87 3.71 38.82C5.89 38.79 6.07 39.43 10.13 39.46C16.05 39.5 19.99 38.92 22.39 37.97C22.09 40.12 21.62 42.42 21.17 44.68C19.68 43.94 17.79 43.76 15.46 43.01C11.07 41.6 9.13 42.27 6.2 43.39C5.27 43.74 2.95 41.91 1.83 43.95C-0.150002 47.56 -0.110003 58.15 3.11 58.14C5.29 58.14 5.7 60.13 9.53 58.78C13.67 57.32 17.1 55.92 19.7 54.56C19.08 56.52 17.6 58.67 17.55 60.33C17.4 64.94 21.1 68.76 25.71 68.76H25.75C30.37 68.76 36.58 68.45 36.42 63.83C36.34 61.65 38.62 51.9 38.56 49.54V49.55Z" fill="#B9DCB7"/>
</g>
<defs>
<clipPath id="clip0_751_167">
<rect width="60.15" height="70" fill="white" transform="translate(0.5)"/>
</clipPath>
</defs>
</svg>
