<svg width="41" height="70" viewBox="0 0 41 70" fill="none" xmlns="http://www.w3.org/2000/svg">
<g clip-path="url(#clip0_751_171)">
<path d="M37.9484 0.36C37.0984 0.6 36.3584 0.71 35.7184 0.73C35.0784 0.7 34.3284 0.6 33.4884 0.36C33.4884 0.36 31.9483 -0.45 30.4783 0.36V17.25H2.87835V17.28H1.22835C-0.401649 18.65 1.22835 20.08 1.22835 20.08C1.70835 20.87 1.92835 21.56 1.97835 22.16C1.92835 22.75 1.70835 23.45 1.22835 24.24C1.22835 24.24 -0.401649 25.67 1.22835 27.04H8.27835H23.5984C23.5984 27.04 27.3783 26.44 30.4683 23.99V43.09H2.87835V43.12H1.22835C-0.401649 44.49 1.22835 45.92 1.22835 45.92C1.70835 46.71 1.92835 47.4 1.97835 48C1.92835 48.59 1.70835 49.29 1.22835 50.08C1.22835 50.08 -0.401649 51.51 1.22835 52.88H8.27835H23.5984C23.5984 52.88 27.3783 52.28 30.4683 49.83V69.67C31.9383 70.48 33.4784 69.67 33.4784 69.67C34.3284 69.43 35.0684 69.32 35.7084 69.3C36.3484 69.33 37.0984 69.43 37.9384 69.67C37.9384 69.67 39.4784 70.48 40.9484 69.67V0.36C39.4784 -0.45 37.9384 0.36 37.9384 0.36H37.9484Z" fill="#B9DCB7"/>
</g>
<defs>
<clipPath id="clip0_751_171">
<rect width="40.46" height="70" fill="white" transform="translate(0.5)"/>
</clipPath>
</defs>
</svg>
