<svg width="73" height="40" viewBox="0 0 73 40" fill="none" xmlns="http://www.w3.org/2000/svg">
<g clip-path="url(#clip0_751_174)">
<path d="M70.8319 20.21C69.4619 17.52 67.3219 15.42 64.6319 14.14C62.2119 12.99 59.5419 12.59 57.1019 13.03C56.7619 13.09 56.4319 13.17 56.1119 13.26C56.4119 11.27 56.1619 9.23 55.3719 7.33C53.5719 2.97 49.3219 0.03 44.8019 0C44.7719 0 44.7419 0 44.7219 0C40.9219 0 37.6119 1.59 35.4319 4.42C34.8819 3.73 34.2619 3.1 33.5719 2.55C31.4719 0.88 28.8919 0 26.0919 0H26.0719C23.2919 0 20.6919 0.88 18.5419 2.54C16.5519 4.08 15.0819 6.21 14.3919 8.56C13.7719 10.69 13.8119 12.86 14.5219 14.85C14.6119 15.11 14.7219 15.36 14.8319 15.61C12.8219 15.2 10.8419 15.28 9.01186 15.84C6.69186 16.55 4.65186 18 3.12186 20.03C1.53186 22.12 0.61186 24.72 0.50186 27.33C0.39186 30.15 1.22186 32.82 2.90186 35.03C4.65186 37.34 6.93186 38.92 9.47186 39.61C10.4519 39.87 11.4719 40.01 12.5019 40.01C13.8419 40.01 15.1919 39.79 16.5119 39.34C19.0119 38.5 21.1019 36.97 22.4819 35.1C23.3219 34.51 31.2219 29.54 48.4719 37.01C51.7419 38.42 54.8719 39.14 57.8119 39.14C58.6919 39.14 59.5519 39.08 60.3919 38.95C63.6719 38.46 66.5319 37 68.6519 34.74C70.4619 32.82 71.6219 30.44 72.0319 27.86C72.4419 25.23 72.0319 22.59 70.8219 20.22L70.8319 20.21ZM69.9819 27.53C69.6419 29.69 68.6619 31.69 67.1419 33.3C65.3419 35.22 62.9019 36.45 60.0919 36.88C56.8119 37.37 53.1919 36.77 49.3119 35.09C44.9019 33.18 40.7019 31.9 36.8119 31.28C33.6719 30.78 30.7319 30.71 28.0719 31.07C26.4119 31.3 25.0619 31.66 24.0119 32.05C24.2019 31.37 24.3019 30.67 24.3019 29.96C24.3019 29.38 23.8319 28.92 23.2619 28.92C22.6919 28.92 22.2219 29.39 22.2219 29.96C22.2219 31.24 21.7719 32.52 20.9719 33.66C20.9419 33.7 20.9119 33.74 20.8819 33.79C19.7519 35.34 17.9919 36.63 15.8619 37.35C11.5919 38.79 7.37186 37.45 4.58186 33.76C3.19186 31.94 2.51186 29.74 2.60186 27.4C2.68186 25.21 3.46186 23.03 4.78186 21.28C6.04186 19.6 7.71186 18.41 9.61186 17.83C11.7419 17.18 14.0419 17.32 16.4319 18.25C16.5019 18.28 16.5619 18.29 16.6319 18.3C17.3119 19.03 18.1019 19.7 19.0019 20.28C19.4819 20.59 20.1319 20.45 20.4419 19.97C20.7519 19.49 20.6119 18.84 20.1319 18.53C16.7119 16.32 15.3019 12.81 16.3819 9.14C16.9519 7.21 18.1619 5.46 19.8019 4.19C21.5819 2.81 23.7419 2.09 26.0619 2.08H26.0819C28.4019 2.08 30.5419 2.8 32.2519 4.18C33.8119 5.43 34.9919 7.2 35.5719 9.16C36.1119 11 36.1019 12.87 35.5519 14.57C34.9619 16.39 33.7519 17.93 32.0519 19.01C31.5619 19.32 31.4219 19.97 31.7319 20.45C31.9319 20.76 32.2719 20.93 32.6119 20.93C32.8019 20.93 33.0019 20.88 33.1719 20.77C34.3819 20 35.3919 19.04 36.1719 17.93C36.2019 17.89 36.2219 17.86 36.2519 17.82C36.8019 17.02 37.2319 16.15 37.5419 15.21C38.2219 13.11 38.2419 10.81 37.5819 8.57C37.3519 7.78 37.0319 7.02 36.6519 6.29C38.4119 3.61 41.3219 2.08 44.7219 2.08C44.7419 2.08 44.7719 2.08 44.7919 2.08C48.4819 2.1 51.9719 4.53 53.4519 8.12C54.9519 11.74 54.0619 15.59 51.0119 18.68C50.8419 18.85 50.7519 19.06 50.7219 19.28C50.7219 19.28 50.7219 19.29 50.7219 19.3C50.7219 19.3 50.7219 19.3 50.7219 19.31C50.7219 19.33 50.7219 19.35 50.7219 19.37C50.7219 19.39 50.7219 19.4 50.7219 19.42C50.7219 19.44 50.7219 19.45 50.7219 19.47C50.7219 19.49 50.7219 19.51 50.7219 19.53C50.7219 19.54 50.7219 19.56 50.7219 19.57C50.7219 19.59 50.7219 19.61 50.7219 19.63C50.7219 19.64 50.7219 19.65 50.7219 19.67C50.7219 19.69 50.7219 19.71 50.7419 19.73C50.7419 19.75 50.7519 19.76 50.7619 19.78C50.7619 19.8 50.7719 19.81 50.7819 19.83C50.7819 19.85 50.8019 19.87 50.8119 19.89C50.8119 19.9 50.8219 19.91 50.8319 19.93C50.8319 19.95 50.8519 19.97 50.8619 19.98C50.8619 19.99 50.8719 20 50.8819 20.01C50.8819 20.02 50.9019 20.04 50.9119 20.05C50.9119 20.06 50.9319 20.08 50.9419 20.09C50.9419 20.1 50.9619 20.11 50.9719 20.12C50.9819 20.14 51.0019 20.15 51.0119 20.16C51.0119 20.16 51.0319 20.17 51.0319 20.18C51.0419 20.19 51.0619 20.21 51.0819 20.22C51.0919 20.22 51.1019 20.24 51.1219 20.25C51.1419 20.26 51.1519 20.27 51.1719 20.28C51.1819 20.28 51.2019 20.3 51.2119 20.31C51.2319 20.31 51.2419 20.33 51.2619 20.34C51.2719 20.34 51.2919 20.36 51.3019 20.36C51.3219 20.36 51.3319 20.37 51.3519 20.38C51.3719 20.38 51.3819 20.39 51.4019 20.4C51.4219 20.4 51.4319 20.41 51.4519 20.42C51.4719 20.42 51.4919 20.43 51.5019 20.43C51.5119 20.43 51.5319 20.43 51.5419 20.44C51.5619 20.44 51.5819 20.44 51.6019 20.45C51.6119 20.45 51.6219 20.45 51.6319 20.45C51.6519 20.45 51.6719 20.45 51.6919 20.45C51.7119 20.45 51.7219 20.45 51.7419 20.45H51.7619C52.0019 20.45 52.2219 20.36 52.4019 20.21C52.4319 20.19 52.4519 20.17 52.4819 20.14C53.8119 18.79 54.8019 17.32 55.4319 15.75C56.2019 15.35 56.9719 15.16 57.4719 15.07C61.3019 14.38 66.4719 16.25 68.9619 21.14C69.9619 23.12 70.3119 25.32 69.9719 27.51L69.9819 27.53Z" fill="#B9DCB7"/>
</g>
<defs>
<clipPath id="clip0_751_174">
<rect width="71.7" height="40" fill="white" transform="translate(0.5)"/>
</clipPath>
</defs>
</svg>
