<svg width="61" height="40" viewBox="0 0 61 40" fill="none" xmlns="http://www.w3.org/2000/svg">
<g clip-path="url(#clip0_751_177)">
<path d="M60.5186 6.91C60.3286 1.21 51.7286 0.12 50.5386 0H3.19864C3.21864 0.19 3.23864 0.4 3.23864 0.63C3.41864 6.13 11.4286 7.33 13.0686 7.52H17.4286C18.0586 14.47 18.7786 33.39 7.23864 31.56C7.23864 31.56 6.20864 31.61 4.53864 30.02C4.53864 30.02 3.75864 29.35 3.63864 29.19C3.33864 28.82 2.28864 28.2 1.58864 29.65C1.58864 29.65 -0.0613604 34.84 0.70864 38.75C0.70864 38.75 1.37864 42.36 13.2486 37.29C15.8086 35.89 17.9786 34.12 19.7286 32.38C19.3786 34.21 19.0986 36.66 19.5086 38.75C19.5086 38.75 19.7686 40.15 22.8286 39.98H22.7886C23.8086 39.89 24.7886 39.73 25.7386 39.5C26.3986 39.34 27.1386 39.12 27.9486 38.86C37.4286 35.54 42.7986 26.41 43.2186 25.67C44.9186 22.49 46.2886 18.89 47.2886 14.95C48.1586 11.53 48.5386 9.11 48.6986 7.52H60.5686C60.5486 7.34 60.5386 7.13 60.5286 6.9L60.5186 6.91ZM26.0386 31.56C26.0386 31.56 25.0086 31.61 23.3386 30.02C23.3386 30.02 22.5586 29.35 22.4386 29.19C22.4286 29.18 22.4186 29.16 22.3986 29.15C23.0386 28.14 23.6486 27.08 24.2286 26.03C26.0186 22.77 27.4486 19.05 28.4886 14.96C29.3586 11.54 29.6686 9.12 29.7586 7.53H36.2386C36.8686 14.48 37.5886 33.4 26.0486 31.57L26.0386 31.56Z" fill="#B9DCB7"/>
</g>
<defs>
<clipPath id="clip0_751_177">
<rect width="60.06" height="40" fill="white" transform="translate(0.5)"/>
</clipPath>
</defs>
</svg>
