<svg width="658" height="309" viewBox="0 0 658 309" fill="none" xmlns="http://www.w3.org/2000/svg">
<path d="M206.815 113.931C206.971 170.818 253.26 217.029 310.147 217.029H310.381C367.346 216.873 413.635 170.428 413.479 113.463C413.479 85.8766 402.569 60.0046 383.009 40.5227C363.449 21.0408 337.577 10.3647 310.147 10.3647H309.913C252.948 10.5206 206.659 56.9655 206.815 113.931ZM310.069 61.0956C339.058 61.0956 362.748 84.6298 362.826 113.619C362.826 142.608 339.292 166.298 310.303 166.376C281.314 166.376 257.624 142.842 257.546 113.853C257.546 84.8635 281.08 61.1736 310.069 61.0956Z" fill="white"/>
<path d="M613.726 137.775L505.479 268.299L545.308 301.33L653.555 170.806L613.726 137.775Z" fill="white"/>
<path d="M548.915 159.286C522.887 157.961 502.081 136.453 501.925 110.113C501.769 82.7607 523.901 60.3955 551.175 60.2397C578.528 60.0838 600.893 82.2152 601.049 109.49L650.611 109.178C650.299 54.5509 605.569 10.2881 550.941 10.5998C496.314 10.9115 452.051 55.6419 452.363 110.269C452.675 163.961 495.847 207.523 549.227 208.77L548.915 159.208V159.286Z" fill="white"/>
<path d="M200.04 221.707L133.412 222.096L132.789 118.297L83.4605 118.609C109.254 99.9839 126.009 69.5922 125.775 35.3819C125.775 29.2257 126.009 24.0045 125.463 17.3027L74.0312 17.6144C75.2001 24.0824 74.7326 29.3036 74.8105 35.6936C74.9664 63.8255 52.2115 86.8141 24.1576 86.97C15.5076 86.97 13.1698 87.2038 0.233783 85.7232L0.545493 135.207C8.26033 137 16.2869 138.013 24.5472 137.935C45.5097 137.779 64.9916 131.311 81.1226 120.323L81.6681 222.408L0 222.876L0.233783 269.321L200.274 268.152L200.04 221.707Z" fill="white"/>
</svg>
