<svg width="2035" height="221" viewBox="0 0 2035 221" fill="none" xmlns="http://www.w3.org/2000/svg">
<g clip-path="url(#clip0_1197_3)">
<path d="M216.557 133.201C216.557 146.648 227.502 157.592 240.949 157.592C254.396 157.592 265.34 146.648 265.34 133.201H289.732C289.732 160.095 267.859 181.968 240.964 181.968C214.07 181.968 192.197 160.095 192.197 133.201" fill="#B9DCB7"/>
<path d="M255.012 133.201H226.867V220.297H255.012V133.201Z" fill="#B9DCB7"/>
<path d="M349.301 133.199C349.301 146.646 360.246 157.591 373.693 157.591C387.14 157.591 398.084 146.646 398.084 133.199H422.476C422.476 160.093 400.603 181.966 373.709 181.966C346.815 181.966 324.941 160.093 324.941 133.199" fill="#B9DCB7"/>
<path d="M387.757 133.199H359.611V220.296H387.757V133.199Z" fill="#B9DCB7"/>
<path d="M302.874 66.4868C302.874 57.5538 297.742 49.8245 290.282 46.0549C292.896 38.1039 291.058 29.0125 284.739 22.6929C278.419 16.3733 269.328 14.536 261.377 17.1493C257.607 9.68934 249.878 4.55762 240.945 4.55762C232.012 4.55762 224.282 9.68934 220.513 17.1493C212.562 14.536 203.471 16.3733 197.151 22.6929C190.831 29.0125 188.994 38.1039 191.607 46.0549C184.147 49.8245 179.016 57.5538 179.016 66.4868C179.016 75.4198 184.147 83.149 191.607 86.9186C188.994 94.8696 190.831 103.961 197.151 110.281C203.471 116.6 212.562 118.438 220.513 115.824C224.282 123.284 232.012 128.416 240.945 128.416C249.878 128.416 257.607 123.284 261.377 115.824C269.328 118.438 278.419 116.6 284.739 110.281C291.058 103.961 292.896 94.8696 290.282 86.9186C297.742 83.149 302.874 75.4198 302.874 66.4868ZM225.66 67.3262C225.66 58.9 232.519 52.0577 240.929 52.0577C249.339 52.0577 256.197 58.9159 256.197 67.3262C256.197 75.7365 249.339 82.5947 240.929 82.5947C232.519 82.5947 225.66 75.7365 225.66 67.3262Z" fill="#1F469A"/>
<path d="M430.136 50.1105L413.173 50.0947L425.179 38.1048L402.039 14.9645L390.033 26.9702V9.99121L357.31 10.007V26.9386L345.336 14.9645L322.196 38.089L334.186 50.0947L317.223 50.0788V82.8015H334.186L322.196 94.7914L345.32 117.932L357.326 105.942V122.905H390.049V105.958L402.023 117.947L425.163 94.8072L413.173 82.8173H430.136V50.1105Z" fill="#FF90F3"/>
</g>
<g clip-path="url(#clip1_1197_3)">
<path d="M874.298 78.6025L578.97 78.6764L578.945 41.6926L874.323 41.6187L874.298 78.6025Z" fill="#1F469A"/>
<path d="M552.045 48.2012L538.14 24.1124L517.429 36.0705L517.404 12.1543H489.592V36.0705L468.906 24.1124L455 48.2012L475.711 60.1593L455 72.0927L468.906 96.1815L489.617 84.2234V108.14H517.429V84.248L538.115 96.2061L552.021 72.1174L531.335 60.1593L552.045 48.2012Z" fill="#1F469A"/>
<path d="M874.298 189.603L578.97 189.677L578.945 152.693L874.323 152.619L874.298 189.603Z" fill="white"/>
<path d="M552.045 159.202L538.14 135.113L517.429 147.071L517.404 123.155H489.592V147.047L468.906 135.113L455 159.177L475.711 171.136L455 183.094L468.906 207.182L489.617 195.224V219.141H517.429V195.249L538.115 207.182L552.021 183.118L531.335 171.16L552.045 159.202Z" fill="white"/>
</g>
<g clip-path="url(#clip2_1197_3)">
<path d="M1002.56 122.828C995.547 122.828 988.991 124.743 983.329 128.031V100.93H963.783V128.031C958.122 124.743 951.544 122.828 944.55 122.828C923.298 122.828 906.021 140.104 906.021 161.356H925.296C925.296 150.741 933.935 142.082 944.571 142.082C955.208 142.082 963.534 150.449 963.804 160.857V208.669H983.35V160.836C983.62 150.449 992.134 142.082 1002.58 142.082C1013.03 142.082 1021.86 150.72 1021.86 161.356H1041.13C1041.13 140.104 1023.86 122.828 1002.6 122.828H1002.56Z" fill="#B9DCB7"/>
<path d="M1014.13 19.7505H932.955V100.929H1014.13V19.7505Z" fill="#FF90F3"/>
<path d="M1149.23 122.828C1142.21 122.828 1135.66 124.743 1129.99 128.031V100.93H1110.45V128.031C1104.79 124.743 1098.21 122.828 1091.22 122.828C1069.96 122.828 1052.69 140.104 1052.69 161.356H1071.96C1071.96 150.741 1080.6 142.082 1091.24 142.082C1101.87 142.082 1110.22 150.449 1110.47 160.857V208.669H1130.02V160.836C1130.29 150.449 1138.8 142.082 1149.25 142.082C1159.7 142.082 1168.52 150.72 1168.52 161.356H1187.8C1187.8 140.104 1170.52 122.828 1149.27 122.828H1149.23Z" fill="#B9DCB7"/>
<path d="M1160.8 19.7505H1079.62V100.929H1160.8V19.7505Z" fill="white"/>
</g>
<g clip-path="url(#clip3_1197_3)">
<path d="M1252.3 208.14C1278.97 208.14 1300.6 186.515 1300.6 159.839C1300.6 133.163 1278.97 111.538 1252.3 111.538C1225.62 111.538 1203.99 133.163 1203.99 159.839C1203.99 186.515 1225.62 208.14 1252.3 208.14Z" fill="white"/>
<path d="M1336.86 208.14C1363.53 208.14 1385.16 186.515 1385.16 159.839C1385.16 133.163 1363.53 111.538 1336.86 111.538C1310.18 111.538 1288.55 133.163 1288.55 159.839C1288.55 186.515 1310.18 208.14 1336.86 208.14Z" fill="#B9DCB7"/>
<path d="M1423.4 208.14C1450.08 208.14 1471.7 186.515 1471.7 159.839C1471.7 133.163 1450.08 111.538 1423.4 111.538C1396.72 111.538 1375.1 133.163 1375.1 159.839C1375.1 186.515 1396.72 208.14 1423.4 208.14Z" fill="white"/>
<path d="M1251.3 96.6028C1277.98 96.6028 1299.6 74.9775 1299.6 48.3014C1299.6 21.6253 1277.98 0 1251.3 0C1224.63 0 1203 21.6253 1203 48.3014C1203 74.9775 1224.63 96.6028 1251.3 96.6028Z" fill="#FF90F3"/>
<path d="M1337.85 96.6028C1364.52 96.6028 1386.15 74.9775 1386.15 48.3014C1386.15 21.6253 1364.52 0 1337.85 0C1311.17 0 1289.54 21.6253 1289.54 48.3014C1289.54 74.9775 1311.17 96.6028 1337.85 96.6028Z" fill="#1F469A"/>
<path d="M1422.41 96.6028C1449.09 96.6028 1470.72 74.9775 1470.72 48.3014C1470.72 21.6253 1449.09 0 1422.41 0C1395.74 0 1374.11 21.6253 1374.11 48.3014C1374.11 74.9775 1395.74 96.6028 1422.41 96.6028Z" fill="#FF90F3"/>
</g>
<g clip-path="url(#clip4_1197_3)">
<path d="M1570.71 66.8048C1587.9 66.8048 1601.83 52.8703 1601.83 35.6812C1601.83 18.4921 1587.9 4.55762 1570.71 4.55762C1553.52 4.55762 1539.58 18.4921 1539.58 35.6812C1539.58 52.8703 1553.52 66.8048 1570.71 66.8048Z" fill="#1F469A"/>
<path d="M1528.12 66.8048C1545.31 66.8048 1559.25 52.8703 1559.25 35.6812C1559.25 18.4921 1545.31 4.55762 1528.12 4.55762C1510.93 4.55762 1497 18.4921 1497 35.6812C1497 52.8703 1510.93 66.8048 1528.12 66.8048Z" fill="#1F469A"/>
<path d="M1570.71 138.485C1587.9 138.485 1601.83 124.55 1601.83 107.361C1601.83 90.1723 1587.9 76.2378 1570.71 76.2378C1553.52 76.2378 1539.58 90.1723 1539.58 107.361C1539.58 124.55 1553.52 138.485 1570.71 138.485Z" fill="white"/>
<path d="M1528.12 138.485C1545.31 138.485 1559.25 124.55 1559.25 107.361C1559.25 90.1723 1545.31 76.2378 1528.12 76.2378C1510.93 76.2378 1497 90.1723 1497 107.361C1497 124.55 1510.93 138.485 1528.12 138.485Z" fill="white"/>
<path d="M1570.71 210.149C1587.9 210.149 1601.83 196.215 1601.83 179.025C1601.83 161.836 1587.9 147.902 1570.71 147.902C1553.52 147.902 1539.58 161.836 1539.58 179.025C1539.58 196.215 1553.52 210.149 1570.71 210.149Z" fill="#FF90F3"/>
<path d="M1528.12 210.149C1545.31 210.149 1559.25 196.215 1559.25 179.025C1559.25 161.836 1545.31 147.902 1528.12 147.902C1510.93 147.902 1497 161.836 1497 179.025C1497 196.215 1510.93 210.149 1528.12 210.149Z" fill="#FF90F3"/>
</g>
<g clip-path="url(#clip5_1197_3)">
<path d="M2034.33 98.3344C2034.33 45.2248 1991.11 2 1938 2C1884.89 2 1841.67 45.2248 1841.67 98.3344H1883.43C1883.43 68.2015 1907.87 43.7648 1938 43.7648C1968.13 43.7648 1992.57 68.2015 1992.57 98.3344H2034.33Z" fill="#1F469A"/>
<path d="M1819.67 207.999C1819.67 154.89 1776.44 111.665 1723.33 111.665C1670.22 111.665 1627 154.89 1627 207.999H1668.76C1668.76 177.867 1693.2 153.43 1723.33 153.43C1753.47 153.43 1777.9 177.867 1777.9 207.999H1819.67Z" fill="white"/>
<path d="M2034.33 207.999C2034.33 154.89 1991.11 111.665 1938 111.665C1884.89 111.665 1841.67 154.89 1841.67 207.999H1883.43C1883.43 177.867 1907.87 153.43 1938 153.43C1968.13 153.43 1992.57 177.867 1992.57 207.999H2034.33Z" fill="#B9DCB7"/>
<path d="M1819.67 98.3344C1819.67 45.2248 1776.44 2 1723.33 2C1670.22 2 1627 45.2248 1627 98.3344H1668.76C1668.76 68.2015 1693.2 43.7648 1723.33 43.7648C1753.47 43.7648 1777.9 68.2015 1777.9 98.3344H1819.67Z" fill="#FF90F3"/>
</g>
<g clip-path="url(#clip6_1197_3)">
<path d="M35.8094 109.817C55.5864 109.817 71.6188 93.7846 71.6188 74.0076C71.6188 54.2307 55.5864 38.1982 35.8094 38.1982C16.0324 38.1982 0 54.2307 0 74.0076C0 93.7846 16.0324 109.817 35.8094 109.817Z" fill="#1F469A"/>
<path d="M71.5821 9.84473H0C0 29.6225 16.0316 45.6541 35.8094 45.6541C55.5872 45.6541 71.6188 29.6225 71.6188 9.84473C71.6188 9.56928 71.5821 9.27546 71.5821 9V9.84473Z" fill="#1F469A"/>
<path d="M121.753 109.817C141.53 109.817 157.562 93.7846 157.562 74.0076C157.562 54.2307 141.53 38.1982 121.753 38.1982C101.976 38.1982 85.9434 54.2307 85.9434 74.0076C85.9434 93.7846 101.976 109.817 121.753 109.817Z" fill="#FF90F3"/>
<path d="M157.506 9.84425H85.9238C85.9238 29.6221 101.955 45.6536 121.733 45.6536C141.511 45.6536 157.561 29.6221 157.561 9.84425C157.561 9.55043 157.524 9.27497 157.524 8.99951V9.84425H157.506Z" fill="#FF90F3"/>
<path d="M35.8094 220C55.5864 220 71.6188 203.967 71.6188 184.19C71.6188 164.413 55.5864 148.381 35.8094 148.381C16.0324 148.381 0 164.413 0 184.19C0 203.967 16.0324 220 35.8094 220Z" fill="#FF90F3"/>
<path d="M71.5821 120.027H0C0 139.805 16.0316 155.837 35.8094 155.837C55.5872 155.837 71.6188 139.805 71.6188 120.027C71.6188 119.734 71.5821 119.458 71.5821 119.183V120.027Z" fill="#FF90F3"/>
<path d="M121.753 220C141.53 220 157.562 203.968 157.562 184.191C157.562 164.414 141.53 148.381 121.753 148.381C101.976 148.381 85.9434 164.414 85.9434 184.191C85.9434 203.968 101.976 220 121.753 220Z" fill="#1F469A"/>
<path d="M157.506 120.027H85.9238C85.9238 139.805 101.955 155.837 121.733 155.837C141.511 155.837 157.543 139.805 157.543 120.027C157.543 119.734 157.506 119.458 157.506 119.183V120.027Z" fill="#1F469A"/>
</g>
<defs>
<clipPath id="clip0_1197_3">
<rect width="251.138" height="215.738" fill="white" transform="translate(179 4.55762)"/>
</clipPath>
<clipPath id="clip1_1197_3">
<rect width="419.322" height="206.986" fill="white" transform="translate(455 12.1543)"/>
</clipPath>
<clipPath id="clip2_1197_3">
<rect width="287.145" height="200.545" fill="white" transform="translate(906 19.7505)"/>
</clipPath>
<clipPath id="clip3_1197_3">
<rect width="268.704" height="208.142" fill="white" transform="translate(1203)"/>
</clipPath>
<clipPath id="clip4_1197_3">
<rect width="104.831" height="205.591" fill="white" transform="translate(1497 4.55762)"/>
</clipPath>
<clipPath id="clip5_1197_3">
<rect width="407.333" height="206" fill="white" transform="translate(1627 2)"/>
</clipPath>
<clipPath id="clip6_1197_3">
<rect width="157.561" height="211" fill="white" transform="translate(0 9)"/>
</clipPath>
</defs>
</svg>
