<svg width="78" height="67" viewBox="0 0 78 67" fill="none" xmlns="http://www.w3.org/2000/svg">
<g clip-path="url(#clip0_821_12)">
<path d="M11.5779 40.1453C11.5779 44.2907 14.9518 47.6646 19.0972 47.6646C23.2426 47.6646 26.6165 44.2907 26.6165 40.1453H34.1358C34.1358 48.436 27.3929 55.179 19.1021 55.179C10.8113 55.179 4.06836 48.436 4.06836 40.1453" fill="#B8DAB6"/>
<path d="M23.4324 40.1453H14.7559V66.9951H23.4324V40.1453Z" fill="#B8DAB6"/>
<path d="M52.4998 40.1453C52.4998 44.2907 55.8737 47.6646 60.0191 47.6646C64.1645 47.6646 67.5384 44.2907 67.5384 40.1453H75.0577C75.0577 48.436 68.3147 55.179 60.024 55.179C51.7332 55.179 44.9902 48.436 44.9902 40.1453" fill="#B8DAB6"/>
<path d="M64.3542 40.1453H55.6777V66.9951H64.3542V40.1453Z" fill="#B8DAB6"/>
<path d="M77.4199 14.0426L72.1905 14.0377L75.8916 10.3415L68.758 3.20796L65.057 6.90903V1.6748L54.9694 1.67969V6.89926L51.2781 3.20796L44.1445 10.3367L47.8407 14.0377L42.6113 14.0328V24.1204H47.8358L44.1396 27.8166L51.2732 34.9502L54.9742 31.254V36.4834H65.0618V31.2589L68.7531 34.9551L75.8867 27.8215L72.1905 24.1253H77.4199V14.0426Z" fill="#FBF08E"/>
<path d="M38.1864 19.0912C38.1864 16.3374 36.6044 13.9547 34.3047 12.7926C35.1103 10.3415 34.5439 7.53884 32.5957 5.59066C30.6475 3.64247 27.8449 3.07608 25.3938 3.88172C24.2317 1.58199 21.849 0 19.0951 0C16.3413 0 13.9586 1.58199 12.7965 3.88172C10.3454 3.07608 7.54275 3.64247 5.59456 5.59066C3.64638 7.53884 3.07999 10.3415 3.88563 12.7926C1.58589 13.9547 0.00390625 16.3374 0.00390625 19.0912C0.00390625 21.8451 1.58589 24.2278 3.88563 25.3899C3.07999 27.841 3.64638 30.6436 5.59456 32.5918C7.54275 34.54 10.3454 35.1064 12.7965 34.3008C13.9586 36.6005 16.3413 38.1825 19.0951 38.1825C21.849 38.1825 24.2317 36.6005 25.3938 34.3008C27.8449 35.1064 30.6475 34.54 32.5957 32.5918C34.5439 30.6436 35.1103 27.841 34.3047 25.3899C36.6044 24.2278 38.1864 21.8451 38.1864 19.0912ZM14.3834 19.35C14.3834 16.7524 16.4976 14.6431 19.0903 14.6431C21.683 14.6431 23.7972 16.7573 23.7972 19.35C23.7972 21.9427 21.683 24.0569 19.0903 24.0569C16.4976 24.0569 14.3834 21.9427 14.3834 19.35Z" fill="#FF90F3"/>
</g>
<defs>
<clipPath id="clip0_821_12">
<rect width="77.4196" height="67" fill="white"/>
</clipPath>
</defs>
</svg>
