<svg width="262" height="290" viewBox="0 0 262 290" fill="none" xmlns="http://www.w3.org/2000/svg">
<path d="M253.505 130.487C264.272 108.366 263.32 85.2937 254.896 64.9313L212.853 115.544C212.853 115.544 212.78 115.764 212.707 115.837L154.256 185.494C142.757 199.338 124.445 206.223 106.866 202.341C105.987 202.121 105.181 201.975 104.302 201.682L173.154 118.401H173.08L189.121 99.0639L210.29 73.3546C210.29 73.3546 210.29 73.3546 210.29 73.4278L239.002 38.9289C209.264 3.25804 155.794 -14.8337 115.143 15.0507C109.869 18.9327 105.035 23.474 100.86 28.6012L43.0687 98.0385C37.5752 104.704 32.8142 111.955 29.4449 119.866C16.3339 150.556 21.0216 186.666 41.5305 213.548L0 263.868L31.569 289.87L73.2461 239.403C103.204 253.979 139.021 251.709 166.415 233.324C173.52 228.563 179.746 222.63 185.166 216.038L241.492 149.164C246.253 143.451 250.355 137.152 253.578 130.413L253.505 130.487ZM71.3417 173.555C63.7973 156.635 67.0934 136.859 78.886 122.576L137.556 52.4794C141.145 49.4031 145.174 46.7662 149.568 45.2281C158.505 42.0052 168.906 43.2504 178.794 47.3522L72.5136 175.972C72.0742 175.167 71.7079 174.361 71.3417 173.555Z" fill="white"/>
</svg>
