<svg width="60" height="60" viewBox="0 0 60 60" fill="none" xmlns="http://www.w3.org/2000/svg">
<path d="M29.9799 48.7333C40.6586 48.7333 49.4728 39.9191 49.4728 29.2592C49.4728 18.5993 40.6398 9.78516 29.9611 9.78516C19.3012 9.78516 10.5059 18.5993 10.5059 29.2592C10.5059 39.9191 19.32 48.7333 29.9799 48.7333ZM25.5352 38.9209C24.8383 38.2241 24.876 37.1694 25.5352 36.529L33.257 29.278L25.5352 22.0271C24.8571 21.4056 24.876 20.3132 25.5728 19.654C26.1943 19.0513 27.2114 19.089 27.8894 19.7105L35.856 27.1875C37.0614 28.3175 37.0614 30.2762 35.856 31.3874L27.8894 38.8644C27.2867 39.4482 26.119 39.4671 25.5352 38.9209Z" fill="black"/>
</svg>
