<svg width="87" height="81" viewBox="0 0 87 81" fill="none" xmlns="http://www.w3.org/2000/svg">
<path d="M43.9631 47.4082C44.102 47.5543 44.2498 47.7039 44.3923 47.859C44.4608 47.9329 44.5239 48.0122 44.5816 48.0952C45.0179 48.7317 45.2523 49.2221 44.5185 50.0191C44.5005 50.0371 44.4968 50.0696 44.4878 50.0948C44.486 50.1471 44.5221 50.1723 44.5582 50.194C47.0338 51.6942 49.4914 53.2214 52.0067 54.653C52.5963 54.9884 53.2094 55.2661 53.8801 55.4121C54.1235 55.4644 54.367 55.4987 54.6086 55.4608C55.1116 55.3815 55.5822 55.4951 56.0438 55.67C56.2313 55.7403 56.4171 55.8232 56.5938 55.9188C58.5609 56.979 60.2739 58.3385 61.6064 60.1488C61.7073 60.2859 61.8227 60.4157 61.8714 60.6086C61.7578 60.6898 61.6262 60.6519 61.5054 60.6519C59.5148 60.6555 57.5242 60.6501 55.5336 60.6591C55.2613 60.6591 55.0413 60.5906 54.8159 60.4355C51.3396 58.041 47.865 55.6429 44.3274 53.3404C43.8694 53.0411 43.4096 52.7435 42.948 52.4514C42.6811 52.282 42.7244 52.2207 42.463 52.511C41.529 53.5531 40.5463 54.5484 39.5167 55.4969C37.3296 57.5127 34.8882 59.1571 32.2611 60.5401C32.1168 60.6158 31.9762 60.6591 31.8103 60.6591C30.2813 60.6537 28.7523 60.6555 27.2233 60.6555C27.1836 60.6555 27.1457 60.6447 27.0646 60.6303C27.1782 60.477 27.3333 60.4337 27.4613 60.3634C30.2651 58.8254 32.8814 57.0223 35.2416 54.8586C37.1402 53.1186 38.7125 51.1262 39.789 48.7677C39.9116 48.4991 40.0108 48.2412 39.8232 47.9527C39.6628 47.7057 39.4843 47.5759 39.1615 47.5831C37.7912 47.6174 36.4226 47.6642 35.0577 47.7815C34.0786 47.8662 33.1248 48.0934 32.2377 48.5369C31.7039 48.8038 31.1414 48.8723 30.559 48.8435C29.0444 48.7677 27.6235 48.2989 26.2081 47.8067C25.541 47.5741 24.8937 47.3 24.2734 46.9592C24.0336 46.8276 23.7992 46.6834 23.5973 46.4959C23.1411 46.0757 23.1771 45.7404 23.7163 45.4519C24.0084 45.295 24.3167 45.1778 24.6358 45.0822C25.5374 44.8118 26.4533 44.8172 27.3765 44.9236C28.9254 45.1021 30.4814 45.1544 32.0393 45.1688C35.9033 45.203 39.7691 45.2211 43.6332 45.1417C45.2902 45.1093 46.9472 45.0353 48.5935 44.8154C49.4932 44.6946 50.3803 44.5233 51.2332 44.1879C52.1239 43.8381 53.0597 43.6704 54.0135 43.6127C55.5588 43.519 57.0968 43.5929 58.6204 43.8742C59.3958 44.0184 60.1008 44.3394 60.7391 44.7991C61.1556 45.0985 61.4729 45.4717 61.3683 46.0325C61.2674 46.577 60.9067 46.9088 60.4037 47.1053C59.9782 47.2712 59.531 47.3072 59.0856 47.2928C56.4044 47.2099 53.7214 47.2405 51.0403 47.2405C49.5834 47.2405 48.1265 47.2568 46.6714 47.2748C45.8203 47.2856 44.9711 47.3145 44.12 47.3361C44.0677 47.3361 44.0046 47.3163 43.9559 47.4046L43.9631 47.4082Z" fill="black"/>
<path d="M37.3601 24.2943C36.9832 25.2319 36.6244 26.1406 36.1971 27.0206C35.8635 27.7075 35.5065 28.3819 35.0539 29.0003C34.7889 29.3628 34.4968 29.7017 34.1127 29.9452C33.7268 30.1904 33.3193 30.2805 32.8812 30.0912C32.5783 29.9614 32.3944 29.7432 32.3655 29.406C32.3403 29.1013 32.3655 28.8038 32.4485 28.5081C33.0182 26.4562 33.5844 24.4043 34.147 22.3524C34.2876 21.8385 34.4156 21.3228 34.5473 20.8071C34.6338 20.4645 34.632 20.4609 34.9638 20.4591C36.1177 20.4573 37.2717 20.4555 38.4257 20.4591C38.7521 20.4591 38.7593 20.4699 38.6511 20.771C38.4023 21.4616 38.148 22.1486 37.8956 22.8374C37.8721 22.9023 37.8181 22.9618 37.8812 23.0646C38.3698 22.9618 38.8711 22.85 39.3831 22.8049C39.5833 22.7869 39.787 22.749 39.9854 22.7653C41.0203 22.8464 42.0589 22.8554 43.0867 23.0195C43.8584 23.1421 44.5941 23.3855 45.3171 23.6722C45.4505 23.7245 45.5767 23.7966 45.6975 23.8742C46.197 24.1969 46.2475 24.4764 46.1087 24.9272C45.8869 25.6502 45.8364 26.4021 45.8292 27.1504C45.8111 28.9535 45.8238 30.7565 45.8238 32.5596C45.8238 32.5885 45.8238 32.6173 45.8238 32.6462C45.8328 32.9275 45.8328 32.9293 46.1087 32.9239C47.378 32.9058 48.6456 32.8896 49.915 32.868C51.1266 32.8463 52.3365 32.8247 53.5464 32.7868C54.2225 32.767 54.9059 32.7634 55.5695 32.6227C56.1302 32.5037 56.6729 32.3018 57.2319 32.163C58.8907 31.7501 60.5838 31.6148 62.2878 31.595C62.5817 31.5914 62.5871 31.6004 62.5871 31.9105C62.5889 32.9924 62.5889 34.0742 62.5871 35.1561C62.5871 35.5059 62.5835 35.5113 62.2355 35.4951C58.9214 35.331 55.6055 35.3184 52.2878 35.3364C48.8998 35.3562 45.51 35.3797 42.122 35.4266C40.3063 35.4518 38.4888 35.5005 36.6749 35.5942C34.9043 35.6844 33.139 35.8593 31.3702 35.9675C29.9981 36.0504 28.6277 36.1929 27.3313 36.6328C25.9141 37.1142 24.5293 37.0259 23.1175 36.7284C22.8939 36.6815 22.6126 36.7085 22.4684 36.5517C22.3169 36.3876 22.4179 36.1099 22.4161 35.8809C22.4089 34.9433 22.4197 34.0057 22.4089 33.0681C22.4053 32.8355 22.4828 32.776 22.7046 32.7868C24.0731 32.8463 25.4417 32.9076 26.8102 32.9401C28.2815 32.9743 29.751 32.9816 31.2224 32.9924C33.8891 33.0122 36.5577 33.0717 39.2245 33.032C39.9024 33.023 40.5786 32.9996 41.2565 32.996C41.4819 32.996 41.5414 32.9166 41.5378 32.6913C41.5072 30.789 41.5 28.8849 41.4657 26.9809C41.4513 26.1533 41.0853 25.551 40.2612 25.2752C39.8249 25.1291 39.3921 24.9632 38.9414 24.8749C38.3986 24.7685 37.8902 24.5846 37.3619 24.2943H37.3601Z" fill="black"/>
<path d="M61.5119 12.3628C61.7607 10.5435 61.9284 8.75483 61.9915 6.93552C61.0882 7.02387 60.2299 7.1032 59.3716 7.18975C58.1834 7.31056 56.9951 7.43317 55.8231 7.6838C54.5682 7.95246 53.3349 8.28062 52.1665 8.82695C51.6418 9.07217 51.0864 9.09922 50.5166 9.03972C49.0994 8.88826 47.7705 8.42126 46.4543 7.90738C45.0857 7.37367 43.7605 6.74799 42.4406 6.10249C41.7627 5.77072 41.2253 5.28569 40.8323 4.64018C40.789 4.56986 40.7728 4.4743 40.6393 4.42562C40.4554 4.78083 40.2643 5.13964 40.084 5.50386C39.1933 7.29974 38.5189 9.18036 37.9257 11.0916C37.8229 11.4216 37.6895 11.7425 37.6011 12.0743C37.538 12.3141 37.4262 12.3863 37.1774 12.3826C35.908 12.3682 34.6387 12.3754 33.3693 12.3754C32.6336 12.3754 31.898 12.3754 31.1623 12.3754C31.092 12.3754 31.0217 12.3628 30.9423 12.3556C31.0613 11.5749 31.1803 10.8104 31.2939 10.0458C31.4346 9.10463 31.4995 8.1544 31.5842 7.20778C31.6095 6.9265 31.5968 6.9247 31.2993 6.95715C29.6243 7.14287 27.9474 7.32138 26.2741 7.5125C24.8785 7.67298 23.5154 7.99573 22.255 8.61599C21.2669 9.10283 20.2716 9.13889 19.2277 8.93875C17.8753 8.6791 16.6006 8.19407 15.3438 7.65134C14.3665 7.22942 13.4109 6.75881 12.4679 6.26477C11.5808 5.80137 10.9371 5.10177 10.5061 4.20384C10.2627 3.69717 10.3889 3.34557 10.9082 3.12379C11.3355 2.94168 11.7953 2.86955 12.2569 2.85152C13.9302 2.7812 15.5962 2.83529 17.2605 3.0715C19.0455 3.32393 20.8486 3.39064 22.6535 3.37802C24.3701 3.3654 26.083 3.28246 27.7905 3.09674C28.9643 2.96872 30.1183 2.76317 31.2434 2.35928C32.7959 1.80212 34.3916 1.41446 36.0649 1.55149C37.2207 1.64706 38.3368 1.91391 39.406 2.36469C39.8892 2.56844 40.3184 2.85513 40.6357 3.29328C41.1821 2.88398 41.8149 2.80644 42.446 2.77038C44.0904 2.67662 45.7312 2.75596 47.3666 2.9561C49.3861 3.20312 51.4164 3.30229 53.4521 3.29147C55.0821 3.28246 56.7085 3.19411 58.3276 3.00839C59.386 2.88758 60.43 2.69826 61.4452 2.34125C62.6821 1.9067 63.9442 1.55871 65.2713 1.51543C66.245 1.48298 67.1952 1.62181 68.1382 1.84359C68.7549 1.98784 69.3661 2.15192 69.9467 2.41157C70.2641 2.55401 70.5688 2.71629 70.8176 2.96512C71.2053 3.35278 71.2594 3.78913 70.9835 4.25973C70.9763 4.27235 70.9709 4.28498 70.9619 4.2976C69.999 5.51829 69.5609 6.95174 69.2417 8.4447C68.9839 9.65457 68.6629 10.85 68.3041 12.0346C68.1797 12.4439 68.2067 12.3754 67.8786 12.3754C65.8303 12.3754 63.782 12.3754 61.7337 12.3754C61.6778 12.3754 61.6219 12.3682 61.5119 12.3592V12.3628Z" stroke="black" stroke-width="1.3363" stroke-miterlimit="10"/>
<path d="M42.7732 41.9637C41.8896 41.9168 40.7934 41.9312 39.7097 41.7329C38.7396 41.5544 37.8219 41.237 36.951 40.7772C36.1865 40.3733 35.4508 39.9226 34.7188 39.4664C34.5114 39.3366 34.3149 39.1869 34.1634 38.9904C33.9146 38.6676 33.9452 38.3394 34.2644 38.0834C34.6953 37.739 35.2074 37.6074 35.7483 37.5623C36.4605 37.5028 37.1547 37.6254 37.8489 37.757C39.3653 38.0455 40.8943 38.2078 42.4378 38.2619C44.295 38.3268 46.1503 38.4188 48.0075 38.5125C48.6116 38.5432 49.2066 38.6496 49.7836 38.8479C50.0035 38.9236 50.2127 39.0156 50.4002 39.1508C50.8149 39.4465 50.9321 39.8396 50.7662 40.3283C50.6184 40.7664 50.2974 41.0423 49.9026 41.2478C49.3833 41.5183 48.8153 41.6319 48.2437 41.6878C46.9978 41.8104 45.7501 41.9438 44.4951 41.9637C43.9902 41.9727 43.4872 41.9637 42.7732 41.9637Z" fill="black"/>
<path d="M59.9104 20.5075C59.7914 20.8808 59.6814 21.2486 59.5588 21.611C58.9926 23.2987 58.5039 25.0135 57.8332 26.6651C57.5844 27.2781 57.3085 27.8786 56.9713 28.4483C56.69 28.9208 56.3619 29.3571 55.9436 29.7177C55.7236 29.907 55.4838 30.0621 55.1935 30.1252C54.5444 30.2677 54.0846 29.9377 54.0197 29.2742C53.9746 28.809 54.0665 28.3582 54.1531 27.9056C54.456 26.3099 54.8419 24.7322 55.1827 23.1455C55.3558 22.3449 55.5126 21.5407 55.6623 20.7347C55.6965 20.549 55.7506 20.4553 55.958 20.4571C57.2256 20.4643 58.4931 20.4625 59.7607 20.4643C59.7986 20.4643 59.8382 20.4859 59.9122 20.5093L59.9104 20.5075Z" fill="black"/>
<path d="M34.4096 68.0134C33.7839 68.6084 33.1078 69.0953 32.41 69.5496C28.1258 72.339 23.6181 74.683 18.7714 76.3473C17.6823 76.7205 16.5789 77.0469 15.4195 77.128C15.131 77.1478 14.8425 77.1515 14.5558 77.1064C14.0852 77.0325 13.7047 76.8215 13.5533 76.3383C13.4054 75.8659 13.5406 75.4602 13.8941 75.1212C14.2745 74.7533 14.7361 74.5225 15.2193 74.3296C16.6221 73.7707 17.9997 73.1558 19.3448 72.4652C21.7447 71.2337 24.0274 69.8111 26.2218 68.2442C26.4435 68.0855 26.6581 68.008 26.934 68.0098C29.2978 68.0188 31.6635 68.0152 34.0273 68.0152H34.4078L34.4096 68.0134Z" stroke="black" stroke-width="1.3363" stroke-miterlimit="10"/>
<path d="M53.7326 68.015L56 68.015C59.9524 68.015 62.0556 68.0186 66.008 68.0078C66.3181 68.0078 66.5507 68.0944 66.7869 68.2891C68.0184 69.3024 69.1147 70.442 70.0523 71.7312C70.4274 72.2469 70.7519 72.7842 70.9106 73.4117C71.1396 74.315 70.8908 75.0651 70.1912 75.6619C69.1219 76.5725 67.885 76.7095 66.5724 76.3777C65.4689 76.0983 64.497 75.5357 63.5684 74.8956C60.9233 73.0709 58.28 71.2462 55.6348 69.4214C54.9947 68.9797 54.3528 68.5433 53.7109 68.1034C53.7181 68.0745 53.7272 68.0457 53.7344 68.015H53.7326Z" stroke="black" stroke-width="1.3363" stroke-miterlimit="10"/>
<path d="M69.9686 36.0704V30.1923C70.7331 30.122 71.4832 30.1364 72.2297 30.1545C73.7136 30.1905 75.1958 30.2392 76.6671 30.461C77.6083 30.6016 78.5369 30.7891 79.4222 31.1516C79.8369 31.3211 80.2282 31.532 80.5708 31.8259C81.6418 32.7419 81.5733 34.3196 80.4265 35.1382C79.8874 35.5223 79.2671 35.7026 78.627 35.8252C77.9184 35.9604 77.199 36.0109 76.4814 36.065C74.5106 36.2128 72.538 36.2327 70.5636 36.1551C70.3653 36.1479 70.1615 36.1551 69.9668 36.0722L69.9686 36.0704Z" stroke="black" stroke-width="1.3363" stroke-miterlimit="10" stroke-linejoin="round"/>
<path d="M14.2637 38.0116C13.5533 37.8962 12.8682 37.7339 12.1884 37.5554C9.7416 36.9117 7.32727 36.167 4.97784 35.2204C4.49822 35.0275 4.03483 34.7949 3.60209 34.5082C3.40916 34.3801 3.22524 34.2413 3.07739 34.0628C2.74922 33.6643 2.78529 33.2568 3.18377 32.9323C3.39653 32.7574 3.64536 32.6402 3.89599 32.5338C4.68394 32.1984 5.51697 32.0506 6.35901 31.9334C8.19635 31.6773 10.0391 31.7801 11.8801 31.8432C12.5995 31.8684 13.3189 31.9027 14.0384 31.9189C14.2295 31.9243 14.3178 31.9604 14.3178 32.1822C14.3088 34.0844 14.3106 35.9867 14.3088 37.8872C14.3088 37.9142 14.2908 37.9394 14.2637 38.0134V38.0116Z" stroke="black" stroke-width="1.3363" stroke-miterlimit="10" stroke-linejoin="round"/>
</svg>
