<svg width="60" height="60" viewBox="0 0 60 60" fill="none" xmlns="http://www.w3.org/2000/svg">
<path d="M29.9799 48.7333C40.6586 48.7333 49.4728 39.9191 49.4728 29.2592C49.4728 18.5993 40.6398 9.78516 29.9611 9.78516C19.3012 9.78516 10.5059 18.5993 10.5059 29.2592C10.5059 39.9191 19.32 48.7333 29.9799 48.7333ZM33.7843 38.6761C33.2193 39.2222 32.0893 39.1846 31.4866 38.6196L23.7271 31.3121C22.5594 30.2197 22.5594 28.3364 23.7271 27.244L31.4866 19.9365C32.1458 19.315 33.144 19.315 33.7655 19.88C34.4435 20.5204 34.4435 21.5939 33.7843 22.2154L26.2697 29.2592L33.7843 36.3407C34.4247 36.9622 34.4623 37.998 33.7843 38.6761Z" fill="black"/>
</svg>
