<svg width="1413" height="552" viewBox="0 0 1413 552" fill="none" xmlns="http://www.w3.org/2000/svg">
<path d="M698.423 244.415H626.741V76.4772H446.812V6.89746H698.423V244.415Z" fill="black"/>
<path d="M997.209 244.25H925.56V76.4772H745.632V6.89746H997.209V244.25Z" fill="black"/>
<path d="M997.209 544.746H925.56V348.622H745.632V279.042H997.209V544.746Z" fill="black"/>
<path d="M572.569 552.007C495.302 552.007 432.457 489.162 432.457 411.895C432.457 334.628 495.302 271.783 572.569 271.783C649.836 271.783 712.681 334.628 712.681 411.895C712.681 489.162 649.836 552.007 572.569 552.007ZM572.569 341.33C533.673 341.33 502.004 372.966 502.004 411.895C502.004 450.824 533.64 482.46 572.569 482.46C611.498 482.46 643.134 450.824 643.134 411.895C643.134 372.966 611.498 341.33 572.569 341.33Z" fill="black"/>
<path d="M1412.42 6.89746H1340.77V139.519H1412.42V6.89746Z" fill="black"/>
<path d="M1169.25 209.462C1130.69 209.462 1099.31 178.089 1099.31 139.521C1099.31 100.953 1130.69 69.5797 1169.25 69.5797C1207.82 69.5797 1239.2 100.953 1239.2 139.521H1308.77C1308.77 62.5823 1246.19 0 1169.25 0C1092.32 0 1029.73 62.5823 1029.73 139.521C1029.73 216.459 1092.32 279.042 1169.25 279.042H1412.45V209.462H1169.25Z" fill="black"/>
<path d="M69.5797 139.521C69.5797 100.953 100.953 69.5797 139.521 69.5797C178.089 69.5797 209.462 100.953 209.462 139.521H279.042C279.042 62.5823 216.459 0 139.521 0C62.5823 0 0 62.5823 0 139.521C0 216.459 62.0238 278.45 138.437 279.009H300.757L132.885 475.133V544.712H392.347V475.133H224.475L392.347 279.042V209.462H139.521C100.953 209.462 69.5797 178.089 69.5797 139.521Z" fill="black"/>
<path d="M392.315 6.89893H320.666V139.521H392.315V6.89893Z" fill="black"/>
<path d="M578.055 244.417H446.254V132.984H508.442V184.331H578.055V244.417Z" fill="black"/>
<path d="M1298.36 475.166L1404.08 351.677L1351.35 306.309L1206.8 475.166H1206.41V306.309H1134.76V475.166H1098.75V544.746H1412.45V475.166H1298.36Z" fill="black"/>
</svg>
